<svg height="402pt" viewBox="0 -31 402 402" width="402pt" xmlns="http://www.w3.org/2000/svg" xmlns:xlink="http://www.w3.org/1999/xlink"><linearGradient id="a"><stop offset="0" stop-color="#00efd1"/><stop offset="1" stop-color="#00acea"/></linearGradient><linearGradient id="b" gradientUnits="userSpaceOnUse" x1="201.002" x2="201.002" xlink:href="#a" y1="-68.233" y2="402.853"/><linearGradient id="c" gradientUnits="userSpaceOnUse" x1="105.092" x2="105.092" xlink:href="#a" y1="-68.233" y2="402.853"/><linearGradient id="d" gradientUnits="userSpaceOnUse" x1="163.083" x2="163.083" xlink:href="#a" y1="-68.233" y2="402.853"/><linearGradient id="e" gradientUnits="userSpaceOnUse" x1="47.102" x2="47.102" xlink:href="#a" y1="-68.233" y2="402.853"/><linearGradient id="f" gradientUnits="userSpaceOnUse" x1="201" x2="201" xlink:href="#a" y1="-68.233" y2="402.853"/><path d="m402 93.558594v-58.417969c0-19.339844-15.101562-35.140625-33.722656-35.140625h-334.558594c-18.617188 0-33.71875 15.800781-33.71875 35.140625v269.71875c0 19.339844 15.101562 35.140625 33.71875 35.140625h334.558594c18.621094 0 33.722656-15.800781 33.722656-35.140625v-211.144531c0-.027344 0-.054688 0-.078125 0-.027344 0-.050781 0-.078125zm-368.28125-79.558594h334.558594c10.898437 0 19.722656 9.519531 19.722656 21.140625v51.859375h-374v-51.859375c0-11.621094 8.820312-21.140625 19.71875-21.140625zm334.558594 312h-334.558594c-10.898438 0-19.71875-9.519531-19.71875-21.140625v-203.859375h374v203.859375c0 11.621094-8.824219 21.140625-19.722656 21.140625zm0 0" fill="url(#b)"/><path d="m105.09375 74.898438c13.699219 0 24.84375-11.535157 24.84375-25.71875 0-14.179688-11.148438-25.71875-24.84375-25.71875-13.699219 0-24.847656 11.539062-24.847656 25.71875 0 14.179687 11.148437 25.71875 24.847656 25.71875zm0-37.4375c5.976562 0 10.84375 5.257812 10.84375 11.71875 0 6.464843-4.867188 11.71875-10.84375 11.71875-5.980469 0-10.847656-5.253907-10.847656-11.71875 0-6.460938 4.867187-11.71875 10.847656-11.71875zm0 0" fill="url(#c)"/><path d="m163.082031 74.898438c13.699219 0 24.84375-11.535157 24.84375-25.71875 0-14.179688-11.144531-25.71875-24.84375-25.71875s-24.84375 11.539062-24.84375 25.71875c0 14.179687 11.144531 25.71875 24.84375 25.71875zm0-37.4375c5.980469 0 10.84375 5.257812 10.84375 11.71875 0 6.464843-4.863281 11.71875-10.84375 11.71875-5.976562 0-10.84375-5.253907-10.84375-11.71875 0-6.460938 4.863281-11.71875 10.84375-11.71875zm0 0" fill="url(#d)"/><path d="m47.101562 74.898438c13.699219 0 24.839844-11.535157 24.839844-25.71875 0-14.179688-11.140625-25.71875-24.839844-25.71875-13.703124 0-24.84375 11.539062-24.84375 25.71875 0 14.179687 11.140626 25.71875 24.84375 25.71875zm0-37.4375c5.976563 0 10.839844 5.257812 10.839844 11.71875 0 6.464843-4.859375 11.71875-10.839844 11.71875-5.984374 0-10.84375-5.253907-10.84375-11.71875 0-6.460938 4.863282-11.71875 10.84375-11.71875zm0 0" fill="url(#e)"/><path d="m258.179688 196h-5.179688v-1.839844c0-6.324218-3.632812-12.085937-9.339844-14.808594-.796875-6.351562-3.007812-12.445312-6.46875-17.835937l12.109375-13.679687c1.726563-1.863282 2.308594-4.511719 1.523438-6.929688-.785157-2.414062-2.820313-4.210938-5.3125-4.699219-2.492188-.488281-5.050781.414063-6.691407 2.351563l-11.042968 12.488281c-15.417969-12.359375-37.265625-12.664063-53.015625-.734375l-11.230469-12.699219c-2.5625-2.894531-6.984375-3.164062-9.882812-.605469-2.894532 2.5625-3.164063 6.988282-.601563 9.882813l12.023437 13.597656c-3.882812 5.59375-6.390624 12.023438-7.316406 18.765625-5.871094 2.652344-9.671875 8.464844-9.753906 14.90625v1.839844h-4.179688c-5.554687-.019531-10.882812 2.1875-14.796874 6.128906-3.910157 3.9375-6.082032 9.28125-6.023438 14.835938v1.722656c0 3.863281 3.132812 7 7 7s7-3.136719 7-7v-1.722656c-.0625-1.839844.632812-3.625 1.917969-4.941406 1.289062-1.316407 3.058593-2.046876 4.902343-2.023438h4.179688v16h-.851562c-5.574219-.058594-10.941407 2.109375-14.910157 6.019531-3.972656 3.914063-6.214843 9.25-6.238281 14.824219v5.214844c0 3.863281 3.132812 7 7 7s7-3.136719 7-7v-5.214844c.019531-1.863281.789062-3.640625 2.132812-4.929688 1.347657-1.285156 3.15625-1.976562 5.015626-1.914062h.851562v3.976562c.140625 4.375.890625 8.710938 2.234375 12.878907-8.628906 2.871093-14.394531 11.011719-14.234375 20.105469v5.3125c0 3.863281 3.132812 7 7 7s7-3.136719 7-7v-5.3125c-.097656-3.683594 2.753906-6.773438 6.433594-6.976563 8.542968 13.0625 23.078125 20.957031 38.6875 21.015625h11.167968c16.433594 0 30.90625-9 39.25-22h.28125c4.011719.171875 7.179688 3.472656 7.179688 7.492188v5.78125c0 3.863281 3.132812 7 7 7s7-3.136719 7-7v-5.78125c-.039062-9.503907-6.398438-17.820313-15.5625-20.347657 1.054688-3.96875 1.578125-8.0625 1.5625-12.167969v-3.976562h1.851562c3.972657.089844 7.148438 3.335938 7.148438 7.3125v4.746094c0 3.863281 3.132812 7 7 7s7-3.136719 7-7v-4.746094c-.007812-11.703125-9.445312-21.214844-21.148438-21.3125h-1.851562v-16h5.179688c1.84375-.023438 3.613281.707031 4.902343 2.023438 1.285157 1.316406 1.980469 3.101562 1.917969 4.941406v1.722656c0 3.863281 3.132812 7 7 7s7-3.136719 7-7v-1.722656c.058594-5.554688-2.113281-10.898438-6.023438-14.835938-3.914062-3.941406-9.242187-6.148437-14.796874-6.128906zm-36.0625-31.179688c.371093.613282.832031 1.167969 1.367187 1.644532.050781.046875.109375.199218.160156.25 2.601563 3.339844 4.488281 7.183594 5.535157 11.285156h-56.75c1.035156-4.582031 3.234374-8.824219 6.386718-12.308594.019532-.015625.035156-.089844.050782-.101562.378906-.34375.71875-.730469 1.015624-1.144532 5.558594-5.730468 13.21875-8.929687 21.199219-8.859374 7.980469.074218 15.582031 3.410156 21.035157 9.234374zm-60.117188 79.15625v-49.816406c.078125-1.171875.9375-2.140625 2.089844-2.363281.097656 0 .28125.144531.382812.144531.320313 0 .722656.058594 1.03125.058594h28.496094v84.699219c-18-.789063-32-15.164063-32-32.722657zm46 32.734376v-84.710938h28.101562c.308594 0 .621094-.058594.941407-.058594.042969 0 .054687-.070312.101562-.074218 1.085938.226562 1.859375 1.183593 1.851563 2.292968v37.238282c0 .570312-.234375 1.167968-.234375 1.78125 0 .617187.234375 1.210937.234375 1.78125v9.011718c.003906 17.628906-13.996094 32.042969-30.996094 32.738282zm0 0" fill="url(#f)"/></svg>