<?xml version="1.0"?>
<svg xmlns="http://www.w3.org/2000/svg" xmlns:xlink="http://www.w3.org/1999/xlink" xmlns:svgjs="http://svgjs.com/svgjs" version="1.1" width="512" height="512" x="0" y="0" viewBox="0 0 508.1 508.1" style="enable-background:new 0 0 512 512" xml:space="preserve" class=""><g><script/>
<polygon xmlns="http://www.w3.org/2000/svg" style="" points="448.2,278.3 448.2,278.3 267.2,278.3 267.2,221 240.8,221 240.8,278.3 59.8,278.3   59.8,304.7 59.8,304.7 59.8,362.1 86.1,362.1 86.1,304.7 240.8,304.7 240.8,362.1 267.2,362.1 267.2,304.7 421.9,304.7 421.9,362.1   448.2,362.1 " fill="#cfcfcf" data-original="#f2f2f2" class=""/>
<path xmlns="http://www.w3.org/2000/svg" style="" d="M343.3,0H164.7c-11.7,0-21.2,9.5-21.2,21.2v178.6c0,11.7,9.5,21.2,21.2,21.2h178.6  c11.7,0,21.2-9.5,21.2-21.2V21.2C364.5,9.5,355,0,343.3,0z" fill="#f2705b" data-original="#f2705b" class=""/>
<path xmlns="http://www.w3.org/2000/svg" style="" d="M124.7,362.1H21.2C9.5,362.1,0,371.6,0,383.3v103.6c0,11.7,9.5,21.2,21.2,21.2h103.6  c11.7,0,21.2-9.5,21.2-21.2V383.3C145.9,371.6,136.4,362.1,124.7,362.1z" fill="#65c5b8" data-original="#65c5b8" class=""/>
<path xmlns="http://www.w3.org/2000/svg" style="" d="M486.8,362.1H383.3c-11.7,0-21.2,9.5-21.2,21.2v103.6c0,11.7,9.5,21.2,21.2,21.2h103.6  c11.7,0,21.2-9.5,21.2-21.2V383.3C508,371.6,498.5,362.1,486.8,362.1z" fill="#ffd05c" data-original="#ffd05c" class=""/>
<path xmlns="http://www.w3.org/2000/svg" style="" d="M305.8,362.1H202.2c-11.7,0-21.2,9.5-21.2,21.2v103.6c0,11.7,9.5,21.2,21.2,21.2h103.6  c11.7,0,21.2-9.5,21.2-21.2V383.3C327,371.6,317.5,362.1,305.8,362.1z" fill="#89d6f7" data-original="#89d6f7" class=""/>
<g xmlns="http://www.w3.org/2000/svg">
</g>
<g xmlns="http://www.w3.org/2000/svg">
</g>
<g xmlns="http://www.w3.org/2000/svg">
</g>
<g xmlns="http://www.w3.org/2000/svg">
</g>
<g xmlns="http://www.w3.org/2000/svg">
</g>
<g xmlns="http://www.w3.org/2000/svg">
</g>
<g xmlns="http://www.w3.org/2000/svg">
</g>
<g xmlns="http://www.w3.org/2000/svg">
</g>
<g xmlns="http://www.w3.org/2000/svg">
</g>
<g xmlns="http://www.w3.org/2000/svg">
</g>
<g xmlns="http://www.w3.org/2000/svg">
</g>
<g xmlns="http://www.w3.org/2000/svg">
</g>
<g xmlns="http://www.w3.org/2000/svg">
</g>
<g xmlns="http://www.w3.org/2000/svg">
</g>
<g xmlns="http://www.w3.org/2000/svg">
</g>
</g></svg>
