<svg height="466pt" viewBox="-9 0 466 466.02931" width="466pt" xmlns="http://www.w3.org/2000/svg" xmlns:xlink="http://www.w3.org/1999/xlink"><linearGradient id="a"><stop offset="0" stop-color="#00efd1"/><stop offset="1" stop-color="#00acea"/></linearGradient><linearGradient id="b" gradientUnits="userSpaceOnUse" x1="93.881455" x2="93.881455" xlink:href="#a" y1="-5.232021" y2="465.853979"/><linearGradient id="c" gradientUnits="userSpaceOnUse" x1="268.889455" x2="268.889455" xlink:href="#a" y1="-5.232021" y2="465.853979"/><linearGradient id="d" gradientUnits="userSpaceOnUse" x1="238.889455" x2="238.889455" xlink:href="#a" y1="-5.232021" y2="465.853979"/><linearGradient id="e" gradientUnits="userSpaceOnUse" x1="223.941455" x2="223.941455" xlink:href="#a" y1="-5.232021" y2="465.853979"/><linearGradient id="f" gradientUnits="userSpaceOnUse" x1="313.389455" x2="313.389455" xlink:href="#a" y1="-5.232021" y2="465.853979"/><path d="m122.628906 118.082031c-2.84375-13.195312-14.277344-22.785156-27.773437-23.285156-13.492188-.503906-25.605469 8.210937-29.417969 21.164063-3.816406 12.953124 1.640625 26.839843 13.25 33.734374 11.613281 6.890626 26.417969 5.03125 35.960938-4.519531 7.113281-7.078125 10.121093-17.292969 7.980468-27.09375zm-17.878906 17.191407c-3.691406 3.773437-9.074219 5.363281-14.21875 4.199218-5.835938-1.324218-10.390625-5.878906-11.714844-11.710937-.972656-4.5625.152344-9.316407 3.066406-12.957031 2.914063-3.640626 7.308594-5.777344 11.972657-5.828126 1.136719 0 2.269531.125 3.378906.367188 5.832031 1.324219 10.386719 5.878906 11.710937 11.710938 1.164063 5.148437-.425781 10.527343-4.195312 14.21875zm0 0" fill="url(#b)"/><path d="m268.890625 266.171875c-3.867187 0-7 3.132813-7 7v30.472656c0 3.863281 3.132813 7 7 7 3.863281 0 7-3.136719 7-7v-30.472656c0-3.867187-3.136719-7-7-7zm0 0" fill="url(#c)"/><path d="m122.628906 282.082031c-2.84375-13.195312-14.277344-22.785156-27.773437-23.285156-13.492188-.503906-25.605469 8.210937-29.417969 21.164063-3.816406 12.953124 1.640625 26.839843 13.25 33.734374 11.613281 6.890626 26.417969 5.03125 35.960938-4.519531 7.113281-7.078125 10.121093-17.292969 7.980468-27.09375zm-17.878906 17.191407c-3.691406 3.773437-9.074219 5.363281-14.21875 4.199218-5.835938-1.324218-10.390625-5.878906-11.714844-11.710937-.972656-4.5625.152344-9.316407 3.066406-12.957031 2.914063-3.640626 7.308594-5.777344 11.972657-5.828126 1.136719 0 2.269531.125 3.378906.367188 5.832031 1.324219 10.386719 5.878906 11.710937 11.710938 1.164063 5.148437-.425781 10.527343-4.195312 14.21875zm0 0" fill="url(#b)"/><path d="m238.890625 266.171875c-3.867187 0-7 3.132813-7 7v30.472656c0 3.863281 3.132813 7 7 7 3.863281 0 7-3.136719 7-7v-30.472656c0-3.867187-3.136719-7-7-7zm0 0" fill="url(#d)"/><path d="m313.246094 0c-44.621094-.171875-86.378906 21.96875-111.277344 59h-153.773438c-16.730468.019531-30.289062 13.582031-30.304687 30.3125v70.1875c0 16.769531 13.539063 30.390625 30.304687 30.5h129.695313v33h-129.695313c-16.730468.019531-30.289062 13.582031-30.304687 30.3125v70.1875c0 16.769531 13.539063 30.390625 30.304687 30.5h129.695313v34.582031c-15.902344 2.925781-28.285156 15.476563-30.996094 31.417969h-95.421875c-3.5-12.632812-15.796875-20.734375-28.785156-18.964844-12.988281 1.765625-22.671875 12.859375-22.671875 25.964844 0 13.109375 9.683594 24.199219 22.671875 25.96875 12.988281 1.765625 25.285156-6.335938 28.785156-18.96875h95.421875c3.378907 18.550781 19.535157 32.03125 38.390625 32.03125 18.851563 0 35.007813-13.480469 38.386719-32.03125h95.421875c3.503906 12.644531 15.808594 20.757812 28.808594 18.992188 13.003906-1.769532 22.699218-12.871094 22.699218-25.992188s-9.695312-24.222656-22.699218-25.988281c-13-1.769531-25.304688 6.34375-28.808594 18.988281h-95.421875c-3.054687-16.046875-15.699219-28.546875-31.78125-31.417969v-34.582031h130.480469c16.808594-.089844 30.417968-13.691406 30.519531-30.5v-60.324219c56.449219-17.40625 94.96875-69.5625 95-128.636719 0-74.183593-60.460937-134.539062-134.644531-134.539062zm-287.035156 439.1875c-6.746094 0-12.214844-5.46875-12.214844-12.21875 0-6.746094 5.46875-12.214844 12.214844-12.214844 6.75 0 12.21875 5.46875 12.21875 12.214844-.007813 6.746094-5.472657 12.210938-12.21875 12.21875zm318.144531-24.433594c6.75 0 12.21875 5.46875 12.21875 12.214844 0 6.75-5.46875 12.21875-12.21875 12.21875-6.746094 0-12.21875-5.46875-12.21875-12.21875.007812-6.742188 5.476562-12.210938 12.21875-12.214844zm-134.039063 12.214844c0 13.824219-11.207031 25.03125-25.03125 25.03125-13.824218 0-25.03125-11.207031-25.03125-25.03125s11.207032-25.027344 25.03125-25.027344c6.660156-.074218 13.066406 2.539063 17.777344 7.25 4.710938 4.710938 7.324219 11.117188 7.253906 17.777344zm-178.425781-267.46875v-70.1875c.007813-9.003906 7.300781-16.300781 16.304687-16.3125h145.433594c-9.882812 19.039062-15 40.1875-14.921875 61.632812-.011719 14.042969 2.175781 28 6.484375 41.367188h-136.996094c-9.039062-.097656-16.3125-7.457031-16.304687-16.5zm160 33.902344c6 10.746094 12.28125 20.597656 20.078125 29.597656h-20.078125zm147 130.097656c-.09375 9.082031-7.4375 16.417969-16.519531 16.5h-274.175782c-9.039062-.097656-16.3125-7.457031-16.304687-16.5v-70.1875c.007813-9.003906 7.300781-16.300781 16.304687-16.3125h177.96875c19.429688 16.503906 43.132813 27.175781 68.367188 30.785156-1.632812 1.316406-2.601562 3.289063-2.640625 5.386719v30.472656c0 3.863281 3.132813 7 7 7 3.863281 0 7-3.136719 7-7v-30.472656c.039063-1.582031-.464844-3.128906-1.429687-4.382813 2.867187.1875 5.917968.289063 8.832031.289063 8.589843.011719 17.164062-.796875 25.597656-2.421875zm-25.644531-68.421875c-66.570313 0-120.535156-53.96875-120.535156-120.542969.003906-66.570312 53.96875-120.535156 120.542968-120.535156 66.570313 0 120.535156 53.96875 120.535156 120.539062-.074218 66.542969-54 120.46875-120.542968 120.539063zm0 0" fill="url(#e)"/><path d="m386.894531 75.34375-70.484375-34.601562c-1.042968-.46875-2.167968-.722657-3.3125-.742188h-.007812c-1.414063.003906-2.789063.441406-3.945313 1.257812l-69.355469 33.984376c-2.394531 1.175781-3.910156 3.617187-3.898437 6.285156v66.011718c0 18 11.628906 40.046876 26.511719 50.191407l46.699218 31.859375c1.203126.914062 2.675782 1.410156 4.1875 1.410156h.007813c1.421875 0 2.8125-.441406 3.972656-1.265625l47-32c14.882813-10.148437 26.621094-32.195313 26.621094-50.195313v-65.914062c-.035156-2.679688-1.578125-5.113281-3.996094-6.28125zm-137.003906 72.195312v-61.644531l56.246094-27.5625.148437 152.390625-35.988281-24.558594c-11.074219-7.546874-20.40625-25.238281-20.40625-38.625zm127 0c0 13.390626-9.433594 31.078126-20.507813 38.625l-36.074218 24.578126-.097656-152.566407 56.679687 27.8125zm0 0" fill="url(#f)"/></svg>