<?xml version="1.0"?>
<svg xmlns="http://www.w3.org/2000/svg" xmlns:xlink="http://www.w3.org/1999/xlink" xmlns:svgjs="http://svgjs.com/svgjs" version="1.1" width="512" height="512" x="0" y="0" viewBox="0 0 512 512" style="enable-background:new 0 0 512 512" xml:space="preserve"><g><script/><linearGradient xmlns="http://www.w3.org/2000/svg" id="a" gradientUnits="userSpaceOnUse" x1="31.871" x2="618.859" y1="572.704" y2="-14.285" data-name="New Gradient Swatch 1"><stop offset="0" stop-color="#003f8a"/><stop offset=".518" stop-color="#00d7df"/><stop offset="1" stop-color="#006df0"/></linearGradient><path xmlns="http://www.w3.org/2000/svg" d="m496 400h-8v-24a40 40 0 0 0 -80 0v24h-8a8 8 0 0 0 -8 8v24h-113.38a24.067 24.067 0 0 0 -14.62-14.62v-57.58c84.52-4.18 152-74.26 152-159.8s-67.48-155.62-152-159.8v-.2h-16v.2c-84.52 4.18-152 74.26-152 159.8s67.48 155.62 152 159.8v57.58a24.067 24.067 0 0 0 -14.62 14.62h-113.38v-24a8 8 0 0 0 -8-8h-8v-24a40 40 0 0 0 -80 0v24h-8a8 8 0 0 0 -8 8v64a8 8 0 0 0 8 8h96a8 8 0 0 0 8-8v-24h113.38a23.99 23.99 0 0 0 45.24 0h113.38v24a8 8 0 0 0 8 8h96a8 8 0 0 0 8-8v-64a8 8 0 0 0 -8-8zm-193.31-63.77a126.6 126.6 0 0 0 16.96-25.02 180.183 180.183 0 0 0 10.1-23.21h40.15a144.587 144.587 0 0 1 -67.21 48.23zm77.98-64.23h-45.9a271.6 271.6 0 0 0 9.12-64h55.88a142.886 142.886 0 0 1 -19.1 64zm19.1-80h-55.88a271.6 271.6 0 0 0 -9.12-64h45.9a142.886 142.886 0 0 1 19.1 64zm-29.87-80h-40.15a180.183 180.183 0 0 0 -10.1-23.21 126.6 126.6 0 0 0 -16.96-25.02 144.587 144.587 0 0 1 67.21 48.23zm-105.9-55.07c15.34 3.54 29.84 17.18 41.49 39.32a160.25 160.25 0 0 1 7.18 15.75h-48.67zm0 71.07h54.15a251.618 251.618 0 0 1 9.73 64h-63.88zm0 80h63.88a251.618 251.618 0 0 1 -9.73 64h-54.15zm0 80h48.67a160.25 160.25 0 0 1 -7.18 15.75c-11.65 22.14-26.15 35.78-41.49 39.32zm-224 88a24 24 0 0 1 48 0v24h-48zm64 88h-80v-48h80zm144-407.07v55.07h-48.67a160.25 160.25 0 0 1 7.18-15.75c11.65-22.14 26.15-35.78 41.49-39.32zm-63.88 135.07a251.618 251.618 0 0 1 9.73-64h54.15v64zm63.88 16v64h-54.15a251.618 251.618 0 0 1 -9.73-64zm-38.69-144.23a126.6 126.6 0 0 0 -16.96 25.02 180.183 180.183 0 0 0 -10.1 23.21h-40.15a144.587 144.587 0 0 1 67.21-48.23zm-77.98 64.23h45.9a271.6 271.6 0 0 0 -9.12 64h-55.88a142.886 142.886 0 0 1 19.1-64zm-19.1 80h55.88a271.6 271.6 0 0 0 9.12 64h-45.9a142.886 142.886 0 0 1 -19.1-64zm29.87 80h40.15a180.183 180.183 0 0 0 10.1 23.21 126.6 126.6 0 0 0 16.96 25.02 144.587 144.587 0 0 1 -67.21-48.23zm64.41 15.75a160.25 160.25 0 0 1 -7.18-15.75h48.67v55.07c-15.34-3.54-29.84-17.18-41.49-39.32zm49.49 144.25a8 8 0 1 1 8-8 8.011 8.011 0 0 1 -8 8zm168-72a24 24 0 0 1 48 0v24h-48zm64 88h-80v-48h80z" fill="url(#a)" data-original="url(#a)" style=""/></g></svg>
