<?xml version="1.0"?>
<svg xmlns="http://www.w3.org/2000/svg" xmlns:xlink="http://www.w3.org/1999/xlink" xmlns:svgjs="http://svgjs.com/svgjs" version="1.1" width="512" height="512" x="0" y="0" viewBox="0 0 512 512" style="enable-background:new 0 0 512 512" xml:space="preserve"><g><script/><linearGradient xmlns="http://www.w3.org/2000/svg" id="a" gradientUnits="userSpaceOnUse" x1="256" x2="256" y1="34" y2="483.782"><stop offset="0" stop-color="#00efd1"/><stop offset="1" stop-color="#00acea"/></linearGradient><linearGradient xmlns="http://www.w3.org/2000/svg" xmlns:xlink="http://www.w3.org/1999/xlink" id="b" x1="119.113" x2="119.113" xlink:href="#a" y1="34" y2="483.782"/><linearGradient xmlns="http://www.w3.org/2000/svg" xmlns:xlink="http://www.w3.org/1999/xlink" id="c" x1="256.389" x2="256.389" xlink:href="#a" y1="34" y2="483.782"/><linearGradient xmlns="http://www.w3.org/2000/svg" xmlns:xlink="http://www.w3.org/1999/xlink" id="d" x1="388.791" x2="388.791" xlink:href="#a" y1="34" y2="483.782"/><linearGradient xmlns="http://www.w3.org/2000/svg" xmlns:xlink="http://www.w3.org/1999/xlink" id="e" x1="100.5" x2="100.5" xlink:href="#a" y1="34" y2="483.782"/><linearGradient xmlns="http://www.w3.org/2000/svg" xmlns:xlink="http://www.w3.org/1999/xlink" id="f" x1="411.5" x2="411.5" xlink:href="#a" y1="34" y2="483.782"/><path xmlns="http://www.w3.org/2000/svg" d="m320.555 55h-129.11a10.551 10.551 0 0 0 -10.445 10.188v93.384a10.762 10.762 0 0 0 10.445 10.428h28.555v9h-10.354a10 10 0 1 0 0 20h91a10 10 0 0 0 0-20h-8.646v-9h28.555a10.762 10.762 0 0 0 10.445-10.428v-93.384a10.551 10.551 0 0 0 -10.445-10.188zm-48.555 123h-32v-9h32zm39-29h-110v-74h110z" fill="url(#a)" data-original="url(#a)" style=""/><path xmlns="http://www.w3.org/2000/svg" d="m87.587 271.185a10 10 0 0 0 10-10 157.786 157.786 0 0 1 59.313-123.593 10 10 0 1 0 -12.522-15.592 177.693 177.693 0 0 0 -66.791 139.185 10 10 0 0 0 10 10z" fill="url(#b)" data-original="url(#b)" style=""/><path xmlns="http://www.w3.org/2000/svg" d="m306.685 411.305a159.036 159.036 0 0 1 -100.627.248 10 10 0 1 0 -6.307 18.979 179.03 179.03 0 0 0 113.311-.271 10 10 0 1 0 -6.377-18.956z" fill="url(#c)" data-original="url(#c)" style=""/><path xmlns="http://www.w3.org/2000/svg" d="m347.393 131.787a158.775 158.775 0 0 1 67.02 129.4 10 10 0 0 0 20 0 178.8 178.8 0 0 0 -75.468-145.724 10 10 0 0 0 -11.552 16.326z" fill="url(#d)" data-original="url(#d)" style=""/><path xmlns="http://www.w3.org/2000/svg" d="m165 314h-129.108c-5.523 0-9.892 4.92-9.892 10.443v93.385a10.057 10.057 0 0 0 9.892 10.172h28.108v9h-9.908a10 10 0 1 0 0 20h91a10 10 0 1 0 0-20h-8.092v-9h28a10.148 10.148 0 0 0 10-10.172v-93.385c0-5.523-4.477-10.443-10-10.443zm-48 123h-33v-9h33zm38-29h-109v-74h109z" fill="url(#e)" data-original="url(#e)" style=""/><path xmlns="http://www.w3.org/2000/svg" d="m476.108 314h-129.108c-5.522 0-10 4.92-10 10.443v93.385a10.149 10.149 0 0 0 10 10.172h28v9h-9.8a10 10 0 0 0 0 20h91a10 10 0 0 0 0-20h-8.2v-9h28.108a10.057 10.057 0 0 0 9.892-10.172v-93.385c0-5.523-4.369-10.443-9.892-10.443zm-48.108 123h-33v-9h33zm38-29h-109v-74h109z" fill="url(#f)" data-original="url(#f)" style=""/></g></svg>
