<?xml version="1.0"?>
<svg xmlns="http://www.w3.org/2000/svg" xmlns:xlink="http://www.w3.org/1999/xlink" xmlns:svgjs="http://svgjs.com/svgjs" version="1.1" width="512" height="512" x="0" y="0" viewBox="0 0 496.01002 496" style="enable-background:new 0 0 512 512" xml:space="preserve" class=""><g><script/><linearGradient xmlns="http://www.w3.org/2000/svg" id="a"><stop offset="0" stop-color="#00efd1"/><stop offset="1" stop-color="#00acea"/></linearGradient><linearGradient xmlns="http://www.w3.org/2000/svg" xmlns:xlink="http://www.w3.org/1999/xlink" id="b" gradientUnits="userSpaceOnUse" x1="234.78194" x2="234.78194" xlink:href="#a" y1="-63.994275" y2="394.986725"/><linearGradient xmlns="http://www.w3.org/2000/svg" xmlns:xlink="http://www.w3.org/1999/xlink" id="c" gradientUnits="userSpaceOnUse" x1="248.00494" x2="248.00494" xlink:href="#a" y1="-63.994275" y2="394.986725"/><linearGradient xmlns="http://www.w3.org/2000/svg" xmlns:xlink="http://www.w3.org/1999/xlink" id="d" gradientUnits="userSpaceOnUse" x1="395.14394" x2="395.14394" xlink:href="#a" y1="-63.994275" y2="394.986725"/><linearGradient xmlns="http://www.w3.org/2000/svg" xmlns:xlink="http://www.w3.org/1999/xlink" id="e" gradientUnits="userSpaceOnUse" x1="408.36794" x2="408.36794" xlink:href="#a" y1="-63.994275" y2="394.986725"/><linearGradient xmlns="http://www.w3.org/2000/svg" xmlns:xlink="http://www.w3.org/1999/xlink" id="f" gradientUnits="userSpaceOnUse" x1="74.41894" x2="74.41894" xlink:href="#a" y1="-63.994275" y2="394.986725"/><linearGradient xmlns="http://www.w3.org/2000/svg" xmlns:xlink="http://www.w3.org/1999/xlink" id="g" gradientUnits="userSpaceOnUse" x1="87.64194" x2="87.64194" xlink:href="#a" y1="-63.994275" y2="394.986725"/><linearGradient xmlns="http://www.w3.org/2000/svg" xmlns:xlink="http://www.w3.org/1999/xlink" id="h" gradientUnits="userSpaceOnUse" x1="154.59994" x2="154.59994" xlink:href="#a" y1="-63.994275" y2="394.986725"/><linearGradient xmlns="http://www.w3.org/2000/svg" xmlns:xlink="http://www.w3.org/1999/xlink" id="i" gradientUnits="userSpaceOnUse" x1="167.82394" x2="167.82394" xlink:href="#a" y1="-63.994275" y2="394.986725"/><linearGradient xmlns="http://www.w3.org/2000/svg" xmlns:xlink="http://www.w3.org/1999/xlink" id="j" gradientUnits="userSpaceOnUse" x1="314.96294" x2="314.96294" xlink:href="#a" y1="-63.994275" y2="394.986725"/><linearGradient xmlns="http://www.w3.org/2000/svg" xmlns:xlink="http://www.w3.org/1999/xlink" id="k" gradientUnits="userSpaceOnUse" x1="328.18594" x2="328.18594" xlink:href="#a" y1="-63.994275" y2="394.986725"/><path xmlns="http://www.w3.org/2000/svg" d="m209.65625 255.003906h50.25c4.417969 0 8-3.578125 8-8 0-4.417968-3.582031-8-8-8h-50.25c-4.417969 0-8 3.582032-8 8 0 4.421875 3.582031 8 8 8zm0 0" fill="url(#b)" data-original="url(#b)" style=""/><path xmlns="http://www.w3.org/2000/svg" d="m209.65625 265.003906c-4.417969 0-8 3.582032-8 8 0 4.421875 3.582031 8 8 8h76.695312c4.417969 0 8-3.578125 8-8 0-4.417968-3.582031-8-8-8zm0 0" fill="url(#c)" data-original="url(#c)" style="" class=""/><path xmlns="http://www.w3.org/2000/svg" d="m488.367188 160.003906h-72.363282v-152.152344c.035156-2.089843-.777344-4.101562-2.25-5.578124-1.472656-1.476563-3.480468-2.2968755-5.570312-2.26953175h-160c-.0625 0-.121094.01171875-.183594.01171875-.058594 0-.117188-.01171875-.179688-.01171875h-160c-2.085937-.02343745-4.09375.79296875-5.566406 2.27343775-1.472656 1.476562-2.285156 3.488281-2.25 5.574218v152.152344h-72.359375c-4.417969 0-7.64062475 3.742188-7.64062475 8.160156v160c-.07421875 2.066407.69921875 4.074219 2.14453175 5.554688 1.441406 1.480469 3.429687 2.308594 5.496093 2.285156h160c.0625 0 .121094-.007812.183594-.007812s.121094.007812.183594.007812h159.992187c.0625 0 .121094-.007812.183594-.007812s.121094.007812.183594.007812h160c2.066406.023438 4.050781-.804687 5.496094-2.289062 1.441406-1.480469 2.214843-3.488282 2.136718-5.554688v-160c0-4.414062-3.21875-8.15625-7.636718-8.15625zm-97.363282 16h34v20.542969l-14.230468-5.078125c-1.714844-.601562-3.585938-.601562-5.300782 0l-14.46875 5.078125zm-160 0h34v20.542969l-14.410156-5.078125c-1.683594-.597656-3.519531-.597656-5.203125 0l-14.386719 5.078125zm-160 0h34v20.542969l-14.59375-5.078125c-1.652344-.601562-3.460937-.601562-5.113281 0l-14.292969 5.078125zm240-160h34v20.230469l-14.320312-5.082031c-1.699219-.601563-3.554688-.601563-5.25 0l-14.429688 5.082031zm-55 0h39v31.515625c.015625 2.597657 1.28125 5.027344 3.40625 6.527344 2.121094 1.496094 4.835938 1.878906 7.289063 1.019531l22.480469-7.886718 22.476562 7.886718c.851562.300782 1.75.453125 2.652344.453125 1.609375 0 3.179687-.519531 4.472656-1.476562 2.078125-1.515625 3.28125-3.953125 3.222656-6.523438v-31.515625h39v144h-144zm-105 0h34v20.230469l-14.5-5.082031c-1.667968-.601563-3.492187-.601563-5.160156 0l-14.339844 5.082031zm-55 0h39v31.515625c-.058594 2.570313 1.144532 5.007813 3.222656 6.523438 2.074219 1.5 4.75 1.882812 7.160157 1.023437l22.457031-7.886718 22.464844 7.886718c2.453125.863282 5.167968.480469 7.292968-1.015625 2.125-1.5 3.394532-3.933593 3.40625-6.53125v-31.515625h39v144h-144.003906zm64 304h-144v-144h39v31.832032c-.109375 2.558593 1.0625 5.003906 3.125 6.519531 2.066406 1.515625 4.753906 1.902343 7.160156 1.027343l22.414063-7.886718 22.445313 7.886718c.847656.300782 1.738281.453126 2.632812.453126 1.691406 0 3.347656-.515626 4.738281-1.476563 2.144531-1.484375 3.441407-3.914063 3.484375-6.523437v-31.832032h39zm160 0h-144v-144h39v31.832032c-.027344 2.585937 1.207032 5.019531 3.3125 6.523437 2.101563 1.503906 4.808594 1.886719 7.246094 1.023437l22.457031-7.886718 22.46875 7.886718c.847657.300782 1.742188.453126 2.644531.453126 1.636719 0 3.234376-.515626 4.5625-1.476563 2.097657-1.503906 3.335938-3.941406 3.308594-6.523437v-31.832032h39zm160 0h-144v-144h39v31.832032c.058594 2.613281 1.363282 5.042968 3.507813 6.535156 2.148437 1.492187 4.878906 1.867187 7.351562 1.011718l22.488281-7.886718 22.480469 7.886718c2.371094.859376 5.011719.476563 7.039063-1.023437 2.054687-1.527344 3.226562-3.964844 3.132812-6.523437v-31.832032h39zm0 0" fill="url(#c)" data-original="url(#c)" style="" class=""/><path xmlns="http://www.w3.org/2000/svg" d="m370.019531 255.003906h50.246094c4.417969 0 8-3.578125 8-8 0-4.417968-3.582031-8-8-8h-50.246094c-4.417969 0-8 3.582032-8 8 0 4.421875 3.582031 8 8 8zm0 0" fill="url(#d)" data-original="url(#d)" style=""/><path xmlns="http://www.w3.org/2000/svg" d="m370.019531 265.003906c-4.417969 0-8 3.582032-8 8 0 4.421875 3.582031 8 8 8h76.695313c4.417968 0 8-3.578125 8-8 0-4.417968-3.582032-8-8-8zm0 0" fill="url(#e)" data-original="url(#e)" style=""/><path xmlns="http://www.w3.org/2000/svg" d="m49.296875 255.003906h50.246094c4.417969 0 8-3.578125 8-8 0-4.417968-3.582031-8-8-8h-50.246094c-4.417969 0-8 3.582032-8 8 0 4.421875 3.582031 8 8 8zm0 0" fill="url(#f)" data-original="url(#f)" style=""/><path xmlns="http://www.w3.org/2000/svg" d="m49.296875 265.003906c-4.417969 0-8 3.582032-8 8 0 4.421875 3.582031 8 8 8h76.691406c4.417969 0 8-3.578125 8-8 0-4.417968-3.582031-8-8-8zm0 0" fill="url(#g)" data-original="url(#g)" style=""/><path xmlns="http://www.w3.org/2000/svg" d="m129.476562 94.003906h50.246094c4.417969 0 8-3.578125 8-8 0-4.417968-3.582031-8-8-8h-50.246094c-4.417968 0-8 3.582032-8 8 0 4.421875 3.582032 8 8 8zm0 0" fill="url(#h)" data-original="url(#h)" style=""/><path xmlns="http://www.w3.org/2000/svg" d="m206.171875 105.003906h-76.695313c-4.417968 0-8 3.582032-8 8 0 4.421875 3.582032 8 8 8h76.695313c4.417969 0 8-3.578125 8-8 0-4.417968-3.582031-8-8-8zm0 0" fill="url(#i)" data-original="url(#i)" style=""/><path xmlns="http://www.w3.org/2000/svg" d="m289.839844 94.003906h50.246094c4.417968 0 8-3.578125 8-8 0-4.417968-3.582032-8-8-8h-50.246094c-4.417969 0-8 3.582032-8 8 0 4.421875 3.582031 8 8 8zm0 0" fill="url(#j)" data-original="url(#j)" style=""/><path xmlns="http://www.w3.org/2000/svg" d="m366.53125 105.003906h-76.691406c-4.417969 0-8 3.582032-8 8 0 4.421875 3.582031 8 8 8h76.691406c4.421875 0 8-3.578125 8-8 0-4.417968-3.578125-8-8-8zm0 0" fill="url(#k)" data-original="url(#k)" style=""/></g></svg>
