<?xml version="1.0"?>
<svg xmlns="http://www.w3.org/2000/svg" xmlns:xlink="http://www.w3.org/1999/xlink" xmlns:svgjs="http://svgjs.com/svgjs" version="1.1" width="512" height="512" x="0" y="0" viewBox="0 0 512 512" style="enable-background:new 0 0 512 512" xml:space="preserve" class=""><g><script/><linearGradient xmlns="http://www.w3.org/2000/svg" id="a" gradientUnits="userSpaceOnUse" x1="192.901" x2="319.876" y1="448.522" y2="448.522"><stop offset="0" stop-color="#00efd1"/><stop offset="1" stop-color="#00acea"/></linearGradient><linearGradient xmlns="http://www.w3.org/2000/svg" xmlns:xlink="http://www.w3.org/1999/xlink" id="b" x1="255.844" x2="255.844" xlink:href="#a" y1="34" y2="483.782"/><linearGradient xmlns="http://www.w3.org/2000/svg" xmlns:xlink="http://www.w3.org/1999/xlink" id="c" x1="256" x2="256" xlink:href="#a" y1="34" y2="483.782"/><linearGradient xmlns="http://www.w3.org/2000/svg" xmlns:xlink="http://www.w3.org/1999/xlink" id="d" x1="119.113" x2="119.113" xlink:href="#a" y1="34" y2="483.782"/><linearGradient xmlns="http://www.w3.org/2000/svg" xmlns:xlink="http://www.w3.org/1999/xlink" id="e" x1="388.791" x2="388.791" xlink:href="#a" y1="34" y2="483.782"/><linearGradient xmlns="http://www.w3.org/2000/svg" xmlns:xlink="http://www.w3.org/1999/xlink" id="f" x1="100.291" x2="100.291" xlink:href="#a" y1="34" y2="483.782"/><linearGradient xmlns="http://www.w3.org/2000/svg" xmlns:xlink="http://www.w3.org/1999/xlink" id="g" x1="100.5" x2="100.5" xlink:href="#a" y1="34" y2="483.782"/><linearGradient xmlns="http://www.w3.org/2000/svg" xmlns:xlink="http://www.w3.org/1999/xlink" id="h" x1="411.398" x2="411.398" xlink:href="#a" y1="34" y2="483.782"/><linearGradient xmlns="http://www.w3.org/2000/svg" xmlns:xlink="http://www.w3.org/1999/xlink" id="i" x1="411.5" x2="411.5" xlink:href="#a" y1="34" y2="483.782"/><path xmlns="http://www.w3.org/2000/svg" d="m306.685 434.638a159.036 159.036 0 0 1 -100.627.248 10 10 0 1 0 -6.307 18.979 179.03 179.03 0 0 0 113.311-.271 10 10 0 1 0 -6.377-18.956z" fill="url(#a)" data-original="url(#a)" style=""/><path xmlns="http://www.w3.org/2000/svg" d="m255.845 114.18a41.085 41.085 0 1 0 -41.112-41.111 41.158 41.158 0 0 0 41.112 41.111zm0-62.17a21.085 21.085 0 1 1 -21.112 21.059 21.108 21.108 0 0 1 21.112-21.059z" fill="url(#b)" data-original="url(#b)" style=""/><path xmlns="http://www.w3.org/2000/svg" d="m270.415 120h-28.83a56.355 56.355 0 0 0 -56.585 56.564v8.244c0 5.523 4.086 10.192 9.608 10.192h122.784c5.522 0 9.608-4.669 9.608-10.192v-8.244a56.355 56.355 0 0 0 -56.585-56.564zm-65.766 55a36.537 36.537 0 0 1 36.936-35h28.83a36.537 36.537 0 0 1 36.936 35z" fill="url(#c)" data-original="url(#c)" style=""/><path xmlns="http://www.w3.org/2000/svg" d="m87.587 294.518a10 10 0 0 0 10-10 157.786 157.786 0 0 1 59.313-123.593 10 10 0 1 0 -12.521-15.595 177.693 177.693 0 0 0 -66.792 139.188 10 10 0 0 0 10 10z" fill="url(#d)" data-original="url(#d)" style=""/><path xmlns="http://www.w3.org/2000/svg" d="m347.393 155.12a158.775 158.775 0 0 1 67.02 129.4 10 10 0 1 0 20 0 178.8 178.8 0 0 0 -75.468-145.724 10 10 0 0 0 -11.552 16.326z" fill="url(#e)" data-original="url(#e)" style=""/><path xmlns="http://www.w3.org/2000/svg" d="m100.291 399.361a41.085 41.085 0 1 0 -41.111-41.111 41.157 41.157 0 0 0 41.111 41.111zm0-62.169a21.085 21.085 0 1 1 -21.111 21.058 21.108 21.108 0 0 1 21.111-21.058z" fill="url(#f)" data-original="url(#f)" style=""/><path xmlns="http://www.w3.org/2000/svg" d="m114.861 405h-28.829a56.891 56.891 0 0 0 -57.032 56.746v8.244a10.055 10.055 0 0 0 10.055 10.01h122.783a10.149 10.149 0 0 0 10.162-10.01v-8.244c0-31.418-25.722-56.746-57.139-56.746zm-65.761 55a36.537 36.537 0 0 1 36.936-35h28.829a36.537 36.537 0 0 1 36.935 35z" fill="url(#g)" data-original="url(#g)" style=""/><path xmlns="http://www.w3.org/2000/svg" d="m370.287 358.25a41.111 41.111 0 1 0 41.113-41.058 41.157 41.157 0 0 0 -41.113 41.058zm62.222 0a21.111 21.111 0 1 1 -21.109-21.058 21.134 21.134 0 0 1 21.109 21.058z" fill="url(#h)" data-original="url(#h)" style=""/><path xmlns="http://www.w3.org/2000/svg" d="m425.968 405h-28.829c-31.417 0-57.139 25.328-57.139 56.746v8.244a10.149 10.149 0 0 0 10.162 10.01h122.783a10.055 10.055 0 0 0 10.055-10.01v-8.244a56.891 56.891 0 0 0 -57.032-56.746zm-65.768 55a36.537 36.537 0 0 1 36.936-35h28.829a36.537 36.537 0 0 1 36.935 35z" fill="url(#i)" data-original="url(#i)" style=""/></g></svg>
