<svg id="svg" version="1.1" xmlns="http://www.w3.org/2000/svg" xmlns:xlink="http://www.w3.org/1999/xlink" width="400" height="400" viewBox="0, 0, 400,400"><g id="svgg"><path id="path0" d="M358.460 218.642 C 358.162 218.978,357.999 219.332,358.095 219.429 C 358.192 219.526,358.598 219.244,358.998 218.802 C 359.397 218.361,359.561 218.007,359.362 218.015 C 359.163 218.024,358.757 218.305,358.460 218.642 M105.017 245.278 C 104.085 246.255,104.019 246.418,104.708 246.049 C 105.189 245.792,105.772 245.226,106.005 244.791 C 106.569 243.736,106.417 243.811,105.017 245.278 M147.671 274.629 C 147.380 274.958,147.209 275.426,147.289 275.668 C 147.370 275.911,147.747 275.635,148.127 275.055 C 148.866 273.928,148.550 273.634,147.671 274.629 M211.551 274.840 C 212.047 275.302,212.552 275.581,212.674 275.459 C 212.978 275.155,211.774 274.000,211.153 274.000 C 210.874 274.000,211.052 274.375,211.551 274.840 M80.091 286.700 L 80.000 289.600 73.427 289.600 L 66.853 289.600 66.687 288.500 C 66.595 287.895,66.493 302.115,66.460 320.100 L 66.400 352.800 60.000 352.800 L 53.600 352.800 53.521 318.500 C 53.477 299.635,53.380 285.460,53.306 287.000 L 53.170 289.800 46.785 289.681 L 40.400 289.562 40.354 288.281 C 40.310 287.051,40.295 287.064,39.977 288.600 C 39.485 290.980,39.507 363.600,40.000 363.600 C 40.220 363.600,40.400 363.883,40.400 364.229 C 40.400 364.939,40.913 365.499,42.486 366.505 C 43.472 367.136,45.085 367.200,60.022 367.200 L 76.472 367.200 78.028 366.100 C 78.883 365.495,79.587 364.685,79.591 364.300 C 79.596 363.915,79.780 363.600,80.000 363.600 C 80.262 363.600,80.400 355.000,80.400 338.600 L 80.400 313.600 118.800 313.600 C 139.920 313.600,157.200 313.463,157.200 313.295 C 157.200 313.127,157.605 312.812,158.100 312.595 C 158.595 312.378,159.178 311.795,159.395 311.300 C 159.612 310.805,159.927 310.400,160.095 310.400 C 160.263 310.400,160.370 305.045,160.333 298.500 C 160.296 291.955,160.195 287.275,160.109 288.100 L 159.952 289.600 153.402 289.600 L 146.853 289.600 146.687 288.500 C 146.595 287.895,146.493 290.145,146.460 293.500 L 146.400 299.600 113.408 299.600 L 80.417 299.600 80.300 291.700 C 80.235 287.355,80.141 285.105,80.091 286.700 M240.091 286.700 L 240.000 289.600 233.427 289.600 L 226.853 289.600 226.687 288.500 C 226.595 287.895,226.493 290.145,226.460 293.500 L 226.400 299.600 220.000 299.600 L 213.600 299.600 213.521 291.900 C 213.477 287.665,213.380 285.460,213.306 287.000 L 213.170 289.800 206.785 289.681 L 200.400 289.562 200.354 288.281 C 200.310 287.051,200.295 287.064,199.977 288.600 C 199.562 290.606,199.492 310.399,199.900 310.403 C 200.065 310.404,200.507 310.944,200.881 311.603 C 201.256 312.261,201.841 312.800,202.181 312.800 C 202.522 312.800,202.800 312.980,202.800 313.200 C 202.800 313.466,235.467 313.600,300.000 313.600 C 353.460 313.600,397.200 313.463,397.200 313.295 C 397.200 313.127,397.602 312.812,398.093 312.595 C 399.838 311.823,399.988 310.821,399.994 299.900 L 400.000 289.600 393.427 289.600 L 386.853 289.600 386.687 288.500 C 386.595 287.895,386.493 290.145,386.460 293.500 L 386.400 299.600 380.000 299.600 L 373.600 299.600 373.521 291.900 C 373.477 287.665,373.380 285.460,373.306 287.000 L 373.170 289.800 366.785 289.681 L 360.400 289.562 360.354 288.281 C 360.239 285.066,359.645 290.441,359.623 294.900 L 359.600 299.600 353.450 299.600 L 347.300 299.600 347.050 298.350 C 346.913 297.663,346.800 295.413,346.800 293.350 L 346.800 289.600 340.243 289.600 C 332.668 289.600,333.200 289.269,333.200 293.983 C 333.200 295.697,333.088 297.662,332.950 298.350 L 332.700 299.600 326.550 299.600 L 320.400 299.600 320.321 291.700 C 320.277 287.355,320.179 285.105,320.103 286.700 L 319.965 289.600 313.409 289.600 L 306.853 289.600 306.687 288.500 C 306.595 287.895,306.493 290.145,306.460 293.500 L 306.400 299.600 300.000 299.600 L 293.600 299.600 293.521 291.900 C 293.477 287.665,293.380 285.460,293.306 287.000 L 293.170 289.800 286.785 289.681 L 280.400 289.562 280.354 288.281 C 280.239 285.066,279.645 290.441,279.623 294.900 L 279.600 299.600 273.450 299.600 L 267.300 299.600 267.050 298.350 C 266.913 297.663,266.800 295.413,266.800 293.350 L 266.800 289.600 260.243 289.600 C 252.668 289.600,253.200 289.269,253.200 293.983 C 253.200 295.697,253.088 297.662,252.950 298.350 L 252.700 299.600 246.558 299.600 L 240.417 299.600 240.300 291.700 C 240.235 287.355,240.141 285.105,240.091 286.700 " stroke="none" fill="#0481f3" fill-rule="evenodd"></path><path id="path1" d="M53.067 78.667 C 52.920 78.813,52.800 79.259,52.800 79.657 C 52.800 80.319,52.270 80.389,46.500 80.490 L 40.200 80.600 39.930 82.400 C 39.781 83.390,39.646 99.905,39.630 119.100 L 39.600 154.000 46.200 154.000 L 52.800 154.000 52.847 152.900 L 52.895 151.800 53.200 153.000 C 53.368 153.660,53.527 137.145,53.553 116.300 C 53.579 95.455,53.540 78.400,53.467 78.400 C 53.393 78.400,53.213 78.520,53.067 78.667 M66.400 116.200 L 66.400 154.000 83.100 154.046 C 92.285 154.072,100.070 154.117,100.400 154.146 C 100.947 154.195,101.578 153.695,101.594 153.200 C 101.600 153.017,95.688 153.051,84.099 153.302 C 81.624 153.356,79.599 153.254,79.599 153.076 C 79.600 152.898,79.780 152.864,80.000 153.000 C 80.265 153.164,80.400 144.337,80.400 126.824 L 80.400 100.400 233.400 100.400 L 386.400 100.400 386.400 127.200 L 386.400 154.000 393.204 154.000 L 400.009 154.000 399.995 121.866 L 399.982 89.732 398.933 88.466 C 398.356 87.770,397.640 87.200,397.342 87.200 C 397.044 87.200,396.800 87.020,396.800 86.800 C 396.800 86.534,343.818 86.400,238.655 86.400 L 80.511 86.400 80.155 83.500 L 79.800 80.600 73.500 80.490 L 67.200 80.380 67.200 79.390 C 67.200 78.845,67.020 78.400,66.800 78.400 C 66.536 78.400,66.400 91.267,66.400 116.200 M286.400 119.591 L 286.400 126.400 278.147 126.400 L 269.895 126.400 268.147 128.147 L 266.400 129.895 266.400 138.147 L 266.400 146.400 259.557 146.400 C 253.482 146.400,252.742 146.471,252.957 147.033 C 253.091 147.381,253.200 149.136,253.200 150.933 L 253.200 154.200 266.577 154.090 L 279.955 153.979 280.106 155.890 C 280.188 156.940,280.288 153.885,280.328 149.100 L 280.400 140.400 313.400 140.400 L 346.400 140.400 346.400 147.200 L 346.400 154.000 359.600 154.000 L 372.800 154.000 372.847 152.900 L 372.895 151.800 373.200 153.000 C 373.408 153.817,373.520 152.955,373.553 150.300 L 373.600 146.400 367.000 146.400 L 360.400 146.400 360.400 138.522 C 360.400 126.672,360.126 126.400,348.148 126.400 L 340.419 126.400 340.310 119.700 L 340.200 113.000 333.300 112.891 L 326.400 112.781 326.400 119.591 L 326.400 126.400 323.410 126.400 L 320.419 126.400 320.310 119.700 L 320.200 113.000 313.300 112.891 L 306.400 112.781 306.400 119.591 L 306.400 126.400 303.410 126.400 L 300.419 126.400 300.310 119.700 L 300.200 113.000 293.300 112.891 L 286.400 112.781 286.400 119.591 M154.800 126.800 C 154.800 127.020,154.440 127.200,154.000 127.200 C 153.560 127.200,153.200 127.380,153.200 127.600 C 153.200 127.820,152.958 128.000,152.662 128.000 C 152.366 128.000,151.798 128.360,151.400 128.800 C 151.002 129.240,150.468 129.600,150.213 129.600 C 149.958 129.600,149.505 130.222,149.207 130.982 C 148.909 131.742,148.554 132.295,148.417 132.211 C 148.281 132.127,147.940 132.630,147.659 133.329 C 147.378 134.028,146.979 134.913,146.774 135.295 C 146.257 136.255,146.281 144.921,146.800 144.600 C 147.033 144.456,147.200 144.863,147.200 145.576 C 147.200 146.249,147.380 146.800,147.600 146.800 C 147.820 146.800,148.000 147.070,148.000 147.400 C 148.000 147.730,148.242 148.000,148.538 148.000 C 149.222 148.000,150.490 149.377,150.134 149.732 C 149.987 149.880,150.167 150.000,150.533 150.000 C 150.900 150.000,151.200 150.289,151.200 150.643 C 151.200 151.070,151.417 151.202,151.845 151.038 C 152.323 150.855,152.424 150.961,152.235 151.452 C 152.023 152.005,152.081 152.031,152.591 151.608 C 153.033 151.241,153.200 151.230,153.200 151.569 C 153.200 151.825,153.425 152.006,153.700 151.970 C 154.849 151.821,155.419 152.000,154.881 152.341 C 154.469 152.603,154.494 152.780,155.004 153.203 C 155.512 153.625,155.620 153.629,155.523 153.221 C 155.455 152.938,155.729 152.651,156.131 152.584 C 156.642 152.498,156.792 152.643,156.631 153.064 C 156.486 153.441,156.587 153.598,156.900 153.483 C 157.175 153.383,157.361 153.115,157.313 152.888 C 157.265 152.661,157.497 152.372,157.829 152.244 C 158.235 152.089,158.394 152.226,158.316 152.665 C 158.252 153.024,158.425 153.396,158.700 153.492 C 158.975 153.588,159.200 153.472,159.200 153.233 C 159.200 152.995,159.515 152.803,159.900 152.806 C 160.463 152.811,160.490 152.882,160.039 153.168 C 159.637 153.422,159.779 153.506,160.538 153.462 C 161.122 153.428,161.600 153.181,161.600 152.913 C 161.600 152.632,161.869 152.528,162.234 152.668 C 162.744 152.864,162.763 152.977,162.334 153.250 C 161.966 153.483,162.134 153.590,162.876 153.594 C 163.468 153.597,164.066 153.417,164.204 153.193 C 164.342 152.970,164.621 152.889,164.823 153.014 C 165.025 153.139,165.087 152.971,164.960 152.641 C 164.785 152.184,165.001 152.059,165.865 152.120 C 166.663 152.176,166.964 152.031,166.877 151.632 C 166.776 151.163,166.863 151.154,167.377 151.581 C 167.898 152.013,168.000 151.990,168.000 151.436 C 168.000 151.073,168.315 150.659,168.700 150.516 C 169.503 150.220,171.183 148.738,171.193 148.318 C 171.197 148.163,171.647 147.376,172.194 146.570 C 172.741 145.764,173.098 144.959,172.988 144.780 C 172.877 144.602,172.970 144.342,173.193 144.204 C 173.431 144.057,173.600 142.037,173.600 139.353 C 173.600 136.388,173.458 134.841,173.200 135.000 C 172.858 135.211,172.707 134.694,172.834 133.745 C 172.853 133.604,172.717 133.379,172.533 133.245 C 172.349 133.110,171.679 132.235,171.044 131.300 C 170.410 130.365,169.635 129.600,169.322 129.600 C 169.009 129.600,168.864 129.420,169.000 129.200 C 169.136 128.980,168.967 128.800,168.624 128.800 C 168.281 128.800,168.000 128.620,168.000 128.400 C 168.000 128.180,167.730 128.000,167.400 128.000 C 167.070 128.000,166.800 127.820,166.800 127.600 C 166.800 127.380,166.350 127.200,165.800 127.200 C 165.250 127.200,164.800 127.020,164.800 126.800 C 164.800 126.555,162.867 126.400,159.800 126.400 C 156.733 126.400,154.800 126.555,154.800 126.800 M194.800 126.800 C 194.800 127.020,194.440 127.200,194.000 127.200 C 193.560 127.200,193.200 127.380,193.200 127.600 C 193.200 127.820,192.958 128.000,192.662 128.000 C 192.366 128.000,191.798 128.360,191.400 128.800 C 191.002 129.240,190.468 129.600,190.213 129.600 C 189.958 129.600,189.505 130.222,189.207 130.982 C 188.909 131.742,188.554 132.295,188.417 132.211 C 188.281 132.127,187.940 132.630,187.659 133.329 C 187.378 134.028,186.979 134.913,186.774 135.295 C 186.257 136.255,186.281 144.921,186.800 144.600 C 187.033 144.456,187.200 144.863,187.200 145.576 C 187.200 146.249,187.380 146.800,187.600 146.800 C 187.820 146.800,188.000 147.070,188.000 147.400 C 188.000 147.730,188.242 148.000,188.538 148.000 C 189.222 148.000,190.490 149.377,190.134 149.732 C 189.987 149.880,190.167 150.000,190.533 150.000 C 190.900 150.000,191.200 150.289,191.200 150.643 C 191.200 151.070,191.417 151.202,191.845 151.038 C 192.323 150.855,192.424 150.961,192.235 151.452 C 192.023 152.005,192.081 152.031,192.591 151.608 C 193.033 151.241,193.200 151.230,193.200 151.569 C 193.200 151.825,193.425 152.006,193.700 151.970 C 194.849 151.821,195.419 152.000,194.881 152.341 C 194.469 152.603,194.494 152.780,195.004 153.203 C 195.512 153.625,195.620 153.629,195.523 153.221 C 195.455 152.938,195.729 152.651,196.131 152.584 C 196.642 152.498,196.792 152.643,196.631 153.064 C 196.486 153.441,196.587 153.598,196.900 153.483 C 197.175 153.383,197.361 153.115,197.313 152.888 C 197.265 152.661,197.497 152.372,197.829 152.244 C 198.235 152.089,198.394 152.226,198.316 152.665 C 198.252 153.024,198.425 153.396,198.700 153.492 C 198.975 153.588,199.200 153.472,199.200 153.233 C 199.200 152.995,199.515 152.803,199.900 152.806 C 200.463 152.811,200.490 152.882,200.039 153.168 C 199.637 153.422,199.779 153.506,200.538 153.462 C 201.122 153.428,201.600 153.181,201.600 152.913 C 201.600 152.632,201.869 152.528,202.234 152.668 C 202.744 152.864,202.763 152.977,202.334 153.250 C 201.966 153.483,202.134 153.590,202.876 153.594 C 203.468 153.597,204.066 153.417,204.204 153.193 C 204.342 152.970,204.621 152.889,204.823 153.014 C 205.025 153.139,205.087 152.971,204.960 152.641 C 204.785 152.184,205.001 152.059,205.865 152.120 C 206.663 152.176,206.964 152.031,206.877 151.632 C 206.776 151.163,206.863 151.154,207.377 151.581 C 207.898 152.013,208.000 151.990,208.000 151.436 C 208.000 151.073,208.315 150.659,208.700 150.516 C 209.503 150.220,211.183 148.738,211.193 148.318 C 211.197 148.163,211.647 147.376,212.194 146.570 C 212.741 145.764,213.098 144.959,212.988 144.780 C 212.877 144.602,212.970 144.342,213.193 144.204 C 213.431 144.057,213.600 142.037,213.600 139.353 C 213.600 136.388,213.458 134.841,213.200 135.000 C 212.858 135.211,212.707 134.694,212.834 133.745 C 212.853 133.604,212.717 133.379,212.533 133.245 C 212.349 133.110,211.679 132.235,211.044 131.300 C 210.410 130.365,209.635 129.600,209.322 129.600 C 209.009 129.600,208.864 129.420,209.000 129.200 C 209.136 128.980,208.967 128.800,208.624 128.800 C 208.281 128.800,208.000 128.620,208.000 128.400 C 208.000 128.180,207.730 128.000,207.400 128.000 C 207.070 128.000,206.800 127.820,206.800 127.600 C 206.800 127.380,206.350 127.200,205.800 127.200 C 205.250 127.200,204.800 127.020,204.800 126.800 C 204.800 126.555,202.867 126.400,199.800 126.400 C 196.733 126.400,194.800 126.555,194.800 126.800 M292.994 153.139 C 292.729 153.404,293.285 154.395,293.592 154.205 C 293.762 154.100,302.833 154.004,313.751 153.993 C 329.039 153.976,333.600 153.860,333.600 153.486 C 333.600 153.040,293.436 152.697,292.994 153.139 M101.806 153.590 C 101.513 154.064,102.893 154.323,103.806 153.966 C 104.353 153.753,104.413 153.638,104.000 153.598 C 103.670 153.565,103.086 153.479,102.702 153.405 C 102.317 153.331,101.914 153.415,101.806 153.590 " stroke="none" fill="#04c9f3" fill-rule="evenodd"></path><path id="path2" d="M252.910 153.700 L 252.870 160.400 259.635 160.400 L 266.400 160.400 266.400 163.390 L 266.400 166.381 259.700 166.490 L 253.000 166.600 252.891 173.500 L 252.781 180.400 259.591 180.400 L 266.400 180.400 266.400 183.400 L 266.400 186.400 259.591 186.400 L 252.781 186.400 252.891 193.300 L 253.000 200.200 259.700 200.310 L 266.400 200.419 266.400 208.285 C 266.400 220.070,266.732 220.400,278.594 220.400 L 286.400 220.400 286.400 227.000 L 286.400 233.600 293.400 233.600 L 300.400 233.600 300.400 227.000 L 300.400 220.400 303.400 220.400 L 306.400 220.400 306.400 227.000 L 306.400 233.600 313.400 233.600 L 320.400 233.600 320.400 227.000 L 320.400 220.400 323.400 220.400 L 326.400 220.400 326.400 227.000 L 326.400 233.600 333.400 233.600 L 340.400 233.600 340.400 227.000 L 340.400 220.400 348.200 220.400 C 352.490 220.400,356.045 220.437,356.100 220.482 C 356.245 220.600,358.007 219.125,358.757 218.255 C 359.111 217.846,359.593 217.306,359.829 217.055 C 360.426 216.421,360.400 216.824,360.400 208.200 L 360.400 200.400 367.000 200.400 L 373.600 200.400 373.600 193.400 L 373.600 186.400 367.000 186.400 L 360.400 186.400 360.400 183.400 L 360.400 180.400 367.000 180.400 L 373.600 180.400 373.600 173.400 L 373.600 166.400 367.000 166.400 L 360.400 166.400 360.400 163.400 L 360.400 160.400 367.000 160.400 L 373.600 160.400 373.553 157.300 C 373.527 155.595,373.368 153.660,373.200 153.000 L 372.895 151.800 372.847 152.900 L 372.800 154.000 359.600 154.000 L 346.400 154.000 346.400 180.200 L 346.400 206.400 313.400 206.400 L 280.400 206.400 280.397 182.900 C 280.396 169.975,280.279 158.180,280.138 156.690 L 279.882 153.979 266.555 154.090 L 253.227 154.200 253.088 150.600 C 253.012 148.620,252.932 150.015,252.910 153.700 M148.700 148.265 C 148.975 148.376,149.200 148.690,149.200 148.964 C 149.200 149.237,149.650 149.883,150.200 150.400 C 151.028 151.178,151.200 151.224,151.200 150.670 C 151.200 150.301,150.900 150.000,150.533 150.000 C 150.167 150.000,149.987 149.880,150.134 149.732 C 150.469 149.397,149.231 147.989,148.638 148.032 C 148.385 148.050,148.411 148.148,148.700 148.265 M188.700 148.265 C 188.975 148.376,189.200 148.690,189.200 148.964 C 189.200 149.237,189.650 149.883,190.200 150.400 C 191.028 151.178,191.200 151.224,191.200 150.670 C 191.200 150.301,190.900 150.000,190.533 150.000 C 190.167 150.000,189.987 149.880,190.134 149.732 C 190.469 149.397,189.231 147.989,188.638 148.032 C 188.385 148.050,188.411 148.148,188.700 148.265 M170.116 149.536 C 169.722 149.941,169.085 150.385,168.700 150.523 C 168.315 150.662,168.003 151.006,168.006 151.287 C 168.011 151.688,168.086 151.683,168.351 151.266 C 168.537 150.972,168.759 150.781,168.845 150.842 C 169.089 151.014,170.145 150.270,170.749 149.500 C 171.474 148.575,171.025 148.601,170.116 149.536 M210.116 149.536 C 209.722 149.941,209.085 150.385,208.700 150.523 C 208.315 150.662,208.003 151.006,208.006 151.287 C 208.011 151.688,208.086 151.683,208.351 151.266 C 208.537 150.972,208.759 150.781,208.845 150.842 C 209.089 151.014,210.145 150.270,210.749 149.500 C 211.474 148.575,211.025 148.601,210.116 149.536 M151.893 151.040 C 151.355 151.578,153.975 152.855,154.722 152.420 C 155.420 152.013,154.953 151.807,153.700 151.970 C 153.425 152.006,153.200 151.837,153.200 151.594 C 153.200 151.351,153.035 151.255,152.834 151.379 C 152.633 151.503,152.404 151.413,152.326 151.177 C 152.247 150.942,152.053 150.881,151.893 151.040 M191.893 151.040 C 191.355 151.578,193.975 152.855,194.722 152.420 C 195.420 152.013,194.953 151.807,193.700 151.970 C 193.425 152.006,193.200 151.837,193.200 151.594 C 193.200 151.351,193.035 151.255,192.834 151.379 C 192.633 151.503,192.404 151.413,192.326 151.177 C 192.247 150.942,192.053 150.881,191.893 151.040 M52.847 152.900 L 52.800 154.000 46.200 154.000 L 39.600 154.000 39.602 191.900 C 39.603 212.745,39.720 231.817,39.862 234.282 L 40.120 238.764 46.606 238.882 L 53.092 239.000 53.346 234.838 C 53.704 228.976,53.571 154.458,53.200 153.000 L 52.895 151.800 52.847 152.900 M157.800 152.306 C 157.190 152.754,157.135 153.600,157.715 153.600 C 157.998 153.600,158.257 153.240,158.290 152.800 C 158.358 151.903,158.354 151.899,157.800 152.306 M164.493 152.800 C 164.197 153.274,164.157 153.600,164.397 153.600 C 164.618 153.600,164.800 153.420,164.800 153.200 C 164.800 152.980,165.295 152.787,165.900 152.772 C 166.875 152.747,166.909 152.705,166.200 152.400 C 165.063 151.911,165.045 151.915,164.493 152.800 M197.800 152.306 C 197.190 152.754,197.135 153.600,197.715 153.600 C 197.998 153.600,198.257 153.240,198.290 152.800 C 198.358 151.903,198.354 151.899,197.800 152.306 M204.493 152.800 C 204.197 153.274,204.157 153.600,204.397 153.600 C 204.618 153.600,204.800 153.420,204.800 153.200 C 204.800 152.980,205.295 152.787,205.900 152.772 C 206.875 152.747,206.909 152.705,206.200 152.400 C 205.063 151.911,205.045 151.915,204.493 152.800 M155.376 152.839 C 155.272 153.007,155.370 153.258,155.593 153.396 C 156.043 153.674,156.800 153.327,156.800 152.843 C 156.800 152.442,155.623 152.439,155.376 152.839 M195.376 152.839 C 195.272 153.007,195.370 153.258,195.593 153.396 C 196.043 153.674,196.800 153.327,196.800 152.843 C 196.800 152.442,195.623 152.439,195.376 152.839 M79.600 153.125 C 79.599 153.276,83.154 153.353,87.500 153.296 C 100.238 153.127,101.405 152.949,90.100 152.897 C 84.325 152.871,79.600 152.973,79.600 153.125 M101.432 153.500 C 101.224 154.155,100.088 154.193,83.805 154.085 L 66.400 153.971 66.400 195.162 C 66.400 222.191,66.538 236.438,66.800 236.600 C 67.020 236.736,67.200 237.287,67.200 237.824 L 67.200 238.800 86.720 238.800 C 101.411 238.800,106.359 238.919,106.722 239.282 C 107.098 239.658,107.181 230.613,107.102 198.182 C 107.003 157.948,106.976 156.602,106.257 156.663 C 105.729 156.707,105.639 156.601,105.943 156.297 C 106.453 155.787,104.556 153.961,103.600 154.041 C 102.270 154.154,101.566 153.978,101.804 153.593 C 101.942 153.370,102.223 153.291,102.428 153.417 C 102.632 153.544,102.800 153.457,102.800 153.224 C 102.800 152.520,101.670 152.748,101.432 153.500 M159.200 153.100 C 159.200 153.265,159.678 153.428,160.262 153.462 C 161.021 153.506,161.163 153.422,160.761 153.168 C 160.072 152.732,159.200 152.694,159.200 153.100 M199.200 153.100 C 199.200 153.265,199.678 153.428,200.262 153.462 C 201.021 153.506,201.163 153.422,200.761 153.168 C 200.072 152.732,199.200 152.694,199.200 153.100 M292.807 173.214 L 292.787 193.600 313.193 193.600 L 333.600 193.600 333.600 173.867 C 333.600 163.013,333.525 154.058,333.434 153.967 C 333.342 153.875,324.252 153.890,313.233 154.000 C 299.967 154.132,293.245 154.065,293.333 153.800 C 293.418 153.544,300.599 153.325,313.233 153.191 L 333.000 152.982 312.914 152.905 L 292.828 152.828 292.807 173.214 M386.400 195.176 C 386.400 222.196,386.538 236.438,386.800 236.600 C 387.020 236.736,387.200 237.287,387.200 237.824 L 387.200 238.800 393.600 238.800 L 400.000 238.800 400.000 196.400 L 400.000 154.000 393.200 154.000 L 386.400 154.000 386.400 195.176 M146.400 173.400 L 146.400 180.400 186.800 180.400 L 227.200 180.400 227.200 173.400 L 227.200 166.400 186.800 166.400 L 146.400 166.400 146.400 173.400 M92.800 200.000 L 92.800 232.800 86.600 232.800 L 80.400 232.800 80.400 200.000 L 80.400 167.200 86.600 167.200 L 92.800 167.200 92.800 200.000 M319.600 173.400 L 319.600 179.600 313.400 179.600 L 307.200 179.600 307.200 173.400 L 307.200 167.200 313.400 167.200 L 319.600 167.200 319.600 173.400 M146.667 193.067 C 146.520 193.213,146.400 196.455,146.400 200.269 L 146.400 207.206 173.300 207.103 L 200.200 207.000 200.309 199.900 L 200.418 192.800 173.676 192.800 C 158.967 192.800,146.813 192.920,146.667 193.067 M212.800 200.000 L 212.800 207.200 220.000 207.200 L 227.200 207.200 227.200 200.000 L 227.200 192.800 220.000 192.800 L 212.800 192.800 212.800 200.000 M146.400 226.600 L 146.400 233.600 173.400 233.600 L 200.400 233.600 200.400 226.600 L 200.400 219.600 173.400 219.600 L 146.400 219.600 146.400 226.600 M213.067 219.867 C 212.920 220.013,212.800 223.163,212.800 226.867 L 212.800 233.600 220.000 233.600 L 227.200 233.600 227.200 226.600 L 227.200 219.600 220.267 219.600 C 216.453 219.600,213.213 219.720,213.067 219.867 " stroke="none" fill="#04a7f3" fill-rule="evenodd"></path><path id="path3" d="M2.663 33.776 C 2.079 34.318,1.600 34.583,1.600 34.365 C 1.600 34.147,1.348 34.201,1.039 34.484 C 0.731 34.768,0.639 35.059,0.836 35.132 C 1.032 35.205,0.924 35.533,0.596 35.861 C -0.135 36.592,-0.318 70.156,0.407 70.604 C 0.630 70.742,0.724 70.999,0.616 71.174 C 0.508 71.350,0.806 71.832,1.278 72.247 C 1.825 72.726,2.012 72.782,1.792 72.400 C 1.422 71.758,2.685 72.570,3.245 73.334 C 3.379 73.518,3.604 73.653,3.745 73.634 C 3.885 73.615,12.010 73.600,21.800 73.600 L 39.600 73.600 39.657 78.700 C 39.689 81.618,39.818 83.116,39.957 82.200 L 40.200 80.600 46.500 80.490 C 52.402 80.387,52.800 80.331,52.800 79.613 C 52.800 79.192,52.986 78.732,53.214 78.591 C 53.676 78.306,53.725 63.200,53.265 63.200 C 53.115 63.200,52.756 62.821,52.467 62.358 C 52.031 61.661,52.032 61.570,52.470 61.827 C 52.762 61.998,52.661 61.751,52.247 61.278 C 51.832 60.806,51.364 60.499,51.205 60.597 C 51.047 60.694,50.576 60.516,50.159 60.200 C 49.526 59.721,46.424 59.623,31.500 59.613 L 13.600 59.600 13.600 53.400 L 13.600 47.200 36.576 47.200 C 51.708 47.200,59.639 47.339,59.804 47.607 C 59.942 47.830,60.218 47.913,60.417 47.790 C 60.895 47.494,64.095 48.972,63.741 49.325 C 63.590 49.476,63.777 49.600,64.157 49.600 C 64.537 49.600,64.749 49.760,64.628 49.955 C 64.507 50.150,64.677 50.532,65.004 50.804 C 65.332 51.076,65.600 51.737,65.600 52.273 C 65.600 52.820,65.775 53.139,66.000 53.000 C 66.263 52.837,66.400 57.129,66.400 65.576 C 66.400 73.859,66.542 78.400,66.800 78.400 C 67.020 78.400,67.200 78.845,67.200 79.390 L 67.200 80.380 73.500 80.490 L 79.800 80.600 80.047 82.200 C 80.183 83.080,80.311 75.559,80.332 65.486 C 80.355 53.859,80.229 47.259,79.985 47.410 C 79.766 47.545,79.600 47.033,79.600 46.224 C 79.600 45.441,79.420 44.800,79.200 44.800 C 78.980 44.800,78.800 44.616,78.800 44.392 C 78.800 44.168,78.348 43.268,77.795 42.392 C 77.242 41.516,76.895 40.800,77.024 40.800 C 77.152 40.800,76.987 40.530,76.657 40.200 C 76.327 39.870,75.854 39.600,75.605 39.600 C 75.356 39.600,75.264 39.420,75.400 39.200 C 75.536 38.980,75.455 38.800,75.220 38.800 C 74.985 38.800,74.228 38.260,73.537 37.600 C 72.846 36.940,71.993 36.397,71.641 36.394 C 71.081 36.389,71.076 36.339,71.600 36.000 C 72.108 35.672,72.089 35.611,71.473 35.606 C 71.074 35.603,70.129 35.129,69.374 34.553 C 68.549 33.924,67.692 33.587,67.227 33.709 C 66.783 33.825,66.362 33.678,66.242 33.365 C 66.067 32.910,60.832 32.817,34.880 32.805 L 3.727 32.791 2.663 33.776 M397.778 87.636 C 397.591 87.938,397.643 88.021,397.914 87.853 C 398.154 87.705,398.528 87.900,398.745 88.288 C 398.962 88.676,399.245 88.889,399.372 88.761 C 399.500 88.633,399.262 88.218,398.842 87.838 C 398.269 87.320,398.004 87.269,397.778 87.636 " stroke="none" fill="#04daf3" fill-rule="evenodd"></path><path id="path4" d="M39.733 261.200 C 39.718 276.930,39.838 289.170,40.000 288.400 L 40.295 287.000 40.347 288.281 L 40.400 289.562 46.746 289.681 L 53.092 289.800 53.346 285.638 C 53.486 283.349,53.564 270.659,53.521 257.438 C 53.477 244.217,53.380 234.660,53.306 236.200 L 53.170 239.000 46.602 238.881 L 40.033 238.763 39.897 235.681 C 39.822 233.987,39.748 245.470,39.733 261.200 M66.404 261.476 C 66.407 275.294,66.520 287.275,66.657 288.100 L 66.905 289.600 73.392 289.600 L 79.878 289.600 80.139 285.338 C 80.283 282.994,80.400 273.454,80.400 264.138 L 80.400 247.200 91.522 247.200 L 102.645 247.200 103.955 246.233 C 106.755 244.168,108.135 240.695,106.720 239.280 C 106.360 238.920,101.369 238.800,86.720 238.800 L 67.200 238.800 67.200 237.824 C 67.200 237.287,67.020 236.736,66.800 236.600 C 66.535 236.436,66.401 244.828,66.404 261.476 M386.404 261.476 C 386.407 275.294,386.520 287.275,386.657 288.100 L 386.905 289.600 393.452 289.600 L 400.000 289.600 400.000 264.200 L 400.000 238.800 393.600 238.800 L 387.200 238.800 387.200 237.824 C 387.200 237.287,387.020 236.736,386.800 236.600 C 386.535 236.436,386.401 244.828,386.404 261.476 M148.368 274.872 L 146.400 276.925 146.404 281.762 C 146.407 284.423,146.520 287.275,146.657 288.100 L 146.905 289.600 153.452 289.600 L 160.000 289.600 160.000 288.300 L 160.000 287.000 179.800 287.107 L 199.600 287.215 199.653 288.507 L 199.705 289.800 200.000 288.400 L 200.295 287.000 200.347 288.281 L 200.400 289.562 206.746 289.681 L 213.092 289.800 213.346 285.638 C 213.855 277.305,213.841 277.213,211.759 274.977 L 209.917 273.000 180.127 272.909 L 150.337 272.819 148.368 274.872 M226.404 279.691 C 226.407 283.491,226.520 287.275,226.657 288.100 L 226.905 289.600 233.411 289.600 L 239.917 289.600 240.191 283.900 C 240.342 280.765,240.405 277.030,240.333 275.600 L 240.200 273.000 233.300 272.891 L 226.400 272.781 226.404 279.691 M253.280 273.280 C 252.924 273.636,252.821 276.915,252.881 285.980 C 252.926 292.701,253.016 296.670,253.082 294.800 C 253.282 289.074,252.563 289.600,260.194 289.600 L 266.773 289.600 266.902 293.900 C 266.972 296.265,267.068 292.701,267.115 285.980 C 267.178 276.911,267.076 273.636,266.720 273.280 C 266.388 272.948,264.320 272.800,260.000 272.800 C 255.680 272.800,253.612 272.948,253.280 273.280 M279.653 281.291 C 279.682 286.081,279.834 289.188,280.000 288.400 L 280.295 287.000 280.347 288.281 L 280.400 289.562 286.764 289.681 L 293.128 289.800 293.396 284.200 C 293.543 281.120,293.605 277.340,293.532 275.800 L 293.400 273.000 286.500 272.891 L 279.600 272.781 279.653 281.291 M306.404 279.691 C 306.407 283.491,306.520 287.275,306.657 288.100 L 306.905 289.600 313.411 289.600 L 319.917 289.600 320.191 283.900 C 320.342 280.765,320.405 277.030,320.333 275.600 L 320.200 273.000 313.300 272.891 L 306.400 272.781 306.404 279.691 M333.280 273.280 C 332.924 273.636,332.821 276.915,332.881 285.980 C 332.926 292.701,333.016 296.670,333.082 294.800 C 333.282 289.074,332.563 289.600,340.194 289.600 L 346.773 289.600 346.902 293.900 C 346.972 296.265,347.068 292.701,347.115 285.980 C 347.178 276.911,347.076 273.636,346.720 273.280 C 346.388 272.948,344.320 272.800,340.000 272.800 C 335.680 272.800,333.612 272.948,333.280 273.280 M359.653 281.291 C 359.682 286.081,359.834 289.188,360.000 288.400 L 360.295 287.000 360.347 288.281 L 360.400 289.562 366.764 289.681 L 373.128 289.800 373.396 284.200 C 373.543 281.120,373.605 277.340,373.532 275.800 L 373.400 273.000 366.500 272.891 L 359.600 272.781 359.653 281.291 " stroke="none" fill="#048df4" fill-rule="evenodd"></path></g></svg>