<svg height="485.17741pt" viewBox="0 0 485.17741 485.17741" width="485.17741pt" xmlns="http://www.w3.org/2000/svg" xmlns:xlink="http://www.w3.org/1999/xlink"><linearGradient id="a"><stop offset="0" stop-color="#00efd1"/><stop offset="1" stop-color="#00acea"/></linearGradient><linearGradient id="b" gradientUnits="userSpaceOnUse" x1="242.588704" x2="242.588704" xlink:href="#a" y1="-8.589296" y2="480.606704"/><linearGradient id="c" gradientUnits="userSpaceOnUse" x1="242.376704" x2="242.376704" xlink:href="#a" y1="-8.589296" y2="480.606704"/><path d="m287.589844 217.265625v-14.464844c0-25.285156-19.949219-45.859375-45-45.859375-25.054688 0-45 20.574219-45 45.859375v14.464844c-12.207032 2.855469-20.878906 13.683594-21 26.21875v57.75c0 14.890625 12.097656 27.355469 26.992187 27.355469h78.015625c14.890625 0 26.992188-12.464844 26.992188-27.355469v-57.746094c-.121094-12.535156-8.792969-23.367187-21-26.222656zm-45-46.324219c17.332031 0 31 14.292969 31 31.859375v13.789063h-62v-13.789063c0-17.566406 13.664062-31.859375 31-31.859375zm52 130.648438c0 7.179687-5.820313 13-13 13h-78c-7.179688 0-13-5.820313-13-13v-58c0-7.179688 5.820312-13 13-13h78c7.179687 0 13 5.820312 13 13zm0 0" fill="url(#b)"/><path d="m242.375 256.640625c-7.46875-.003906-13.984375 5.066406-15.820312 12.304687-1.839844 7.238282 1.46875 14.800782 8.035156 18.363282v9.28125c0 3.863281 3.132812 7 7 7 3.863281 0 7-3.136719 7-7v-8.535156c7.207031-2.964844 11.3125-10.613282 9.800781-18.261719-1.511719-7.644531-8.21875-13.15625-16.015625-13.152344zm0 14c1.027344-.003906 1.933594.667969 2.226562 1.652344.296876.980469-.085937 2.042969-.941406 2.609375-.671875-.207032-1.367187-.3125-2.070312-.3125-.273438 0-.546875.015625-.816406.050781-.6875-.65625-.90625-1.664063-.554688-2.542969.355469-.882812 1.207031-1.457031 2.15625-1.457031zm0 0" fill="url(#c)"/><path d="m433.011719 249.589844c3.503906 12.828125 15.960937 21.085937 29.144531 19.316406 13.179688-1.769531 23.019531-13.015625 23.019531-26.316406 0-13.300782-9.839843-24.550782-23.019531-26.316406-13.183594-1.769532-25.640625 6.484374-29.144531 19.316406h-44.878907c-.441406-9.449219-1.835937-18.832032-4.15625-28h27.6875c3.90625-.140625 6.980469-3.375 6.925782-7.28125v-28.71875h10.035156c1.273438 4.4375 3.613281 8.5 6.8125 11.832031 4.890625 4.984375 11.578125 7.800781 18.5625 7.8125s13.679688-2.777344 18.589844-7.746094v.011719c11-10.339844 10.511718-27.15625.171875-37.496094-4.949219-4.972656-11.671875-7.777344-18.6875-7.792968-7.019531-.015626-13.753907 2.757812-18.722657 7.710937-3.171874 3.277344-5.480468 7.28125-6.726562 11.667969h-16.960938c-3.914062.074218-7.054687 3.253906-7.074218 7.167968v28.832032h-24.867188c-14.878906-41.855469-48.078125-74.609375-90.132812-88.910156v-24.089844h30.828125c3.914062-.023438 7.097656-3.164063 7.171875-7.078125v-16.960938c4.386718-1.277343 8.394531-3.617187 11.664062-6.8125 10.285156-10.382812 10.238282-27.128906-.105468-37.453125-10.34375-10.328125-27.089844-10.347656-37.457032-.046875-4.976562 4.941407-7.777344 11.660157-7.777344 18.671875-.003906 7.011719 2.789063 13.734375 7.761719 18.679688h.082031c3.375 4 7.832032 5.789062 11.832032 6.960937v10.039063h-30.925782c-3.867187-.042969-7.035156 3.058594-7.074218 6.921875v27.148437c-8.535156-2.019531-17.238282-3.230468-26-3.617187v-44.875c12.828125-3.507813 21.085937-15.964844 19.316406-29.144531-1.769531-13.183594-13.015625-23.023438-26.316406-23.023438-13.300782 0-24.550782 9.839844-26.316406 23.023438-1.769532 13.179687 6.484374 25.636718 19.316406 29.144531v44.875c-9.449219.445312-18.832032 1.835937-28 4.15625v-27.6875c-.140625-3.902344-3.375-6.980469-7.28125-6.921875h-28.71875v-10.039063c4.4375-1.273437 8.5-3.609375 11.832031-6.8125 4.984375-4.890625 7.800781-11.578125 7.8125-18.558593.011719-6.984376-2.777344-13.683594-7.746094-18.589844h.011719c-10.339844-11-27.152344-10.511719-37.496094-.175782-10.359375 10.304688-10.394531 27.0625-.082031 37.414063 3.277344 3.167969 7.28125 5.480469 11.667969 6.722656v16.960938c.074218 3.914062 3.253906 7.054687 7.167968 7.078125h28.832032v24.867187c-41.855469 14.875-74.609375 48.078125-88.910156 90.132813h-24.089844v-30.832032c-.023438-3.914062-3.164063-7.09375-7.078125-7.167968h-16.960938c-1.277343-4.390625-3.617187-8.398438-6.8125-11.667969-10.382812-10.28125-27.128906-10.234375-37.453125.109375-10.328125 10.34375-10.347656 27.089844-.046875 37.457031 4.941407 4.972657 11.660157 7.773438 18.671875 7.777344 7.011719.003906 13.734375-2.792969 18.679688-7.761719v-.082031c4-3.375 5.789062-7.832031 6.960937-11.832031h10.039063v30.925781c-.042969 3.863281 3.058594 7.03125 6.921875 7.074219h27.148437c-2.019531 8.53125-3.230468 17.238281-3.617187 26h-44.875c-3.507813-12.832032-15.964844-21.085938-29.144531-19.316406-13.183594 1.765624-23.023438 13.015624-23.023438 26.316406 0 13.300781 9.839844 24.546875 23.023438 26.316406 13.179687 1.769531 25.636718-6.488281 29.144531-19.316406h44.875c.445312 9.449218 1.835937 18.828125 4.15625 28h-27.6875c-3.902344.136718-6.980469 3.371094-6.921875 7.277344v28.722656h-10.039063c-1.273437-4.441406-3.609375-8.503906-6.8125-11.835938-4.890625-4.984375-11.578125-7.796875-18.558593-7.808594-6.984376-.015624-13.683594 2.777344-18.589844 7.742188v-.011719c-11 10.339844-10.511719 27.15625-.175782 37.496094 10.3125 10.304687 27.011719 10.339844 37.371094.078125 3.179688-3.269531 5.503906-7.277344 6.765625-11.660156h16.960938c3.914062-.074219 7.054687-3.257813 7.078125-7.171875v-28.828125h24.867187c14.875 41.855468 48.078125 74.605468 90.132813 88.910156v24.089844h-30.832032c-3.914062.019531-7.09375 3.160156-7.167968 7.074218v16.960938c-4.390625 1.277344-8.398438 3.617188-11.667969 6.8125-10.351563 10.375-10.335937 27.179688.039063 37.535156 10.375 10.355469 27.179687 10.339844 37.535156-.035156 4.972656-4.941406 7.773437-11.660156 7.773437-18.671875s-2.792969-13.734375-7.765625-18.675781h-.082031c-3.375-4-7.832031-5.792969-11.832031-6.964844v-10.035156h30.925781c3.863281.039062 7.03125-3.058594 7.074219-6.925782v-27.148437c8.53125 2.023437 17.238281 3.234375 26 3.617187v44.878907c-12.832032 3.503906-21.085938 15.960937-19.316406 29.144531 1.765624 13.179688 13.015624 23.019531 26.316406 23.019531 13.300781 0 24.546875-9.839843 26.316406-23.019531 1.769531-13.183594-6.488281-25.640625-19.316406-29.144531v-44.878907c9.449218-.441406 18.828125-1.835937 28-4.15625v27.6875c.136718 3.90625 3.371094 6.980469 7.277344 6.925782h28.722656v10.035156c-4.441406 1.273438-8.503906 3.613281-11.835938 6.8125-4.984375 4.890625-7.796875 11.578125-7.808594 18.5625-.015624 6.984375 2.777344 13.679688 7.742188 18.589844h-.011719c5.171875 6 11.953125 7.925781 18.746094 7.925781 10.714844.054687 20.402344-6.367187 24.527344-16.253906 4.128906-9.886719 1.875-21.289063-5.699219-28.867188-3.269531-3.183593-7.277344-5.507812-11.660156-6.769531v-16.960938c-.074219-3.914062-3.257813-7.054687-7.171875-7.074218h-28.828125v-24.871094c41.855468-14.871094 74.605468-48.074219 88.910156-90.128906h24.089844v30.828125c.019531 3.914062 3.160156 7.097656 7.074218 7.171875h16.960938c1.277344 4.386718 3.617188 8.394531 6.8125 11.664062 7.578125 7.671875 19.03125 10.015625 29.015625 5.941406 9.980469-4.074218 16.519531-13.765624 16.5625-24.550781.046875-10.78125-6.417969-20.523437-16.367187-24.679687-9.949219-4.15625-21.421876-1.902344-29.058594 5.707031v.082031c-4 3.375-5.792969 7.835938-6.964844 11.835938h-10.035156v-30.925782c.039062-3.867187-3.058594-7.035156-6.925782-7.074218h-27.148437c2.023437-8.535156 3.234375-17.238282 3.617187-26zm16.710937-15.851563c4.890625-4.886719 12.8125-4.886719 17.703125 0 4.886719 4.886719 4.886719 12.8125 0 17.699219-4.890625 4.890625-12.8125 4.890625-17.703125 0-2.355468-2.339844-3.683594-5.527344-3.683594-8.847656 0-3.324219 1.328126-6.507813 3.683594-8.851563zm-4.386718-77.828125c4.890624-4.890625 12.8125-4.890625 17.703124 0 4.886719 4.886719 4.886719 12.8125 0 17.699219-4.898437 4.839844-12.78125 4.816406-17.648437-.050781-4.871094-4.867188-4.890625-12.753906-.054687-17.648438zm-133.769532-116.070312c-4.886718-4.886719-4.886718-12.8125 0-17.699219 4.890625-4.890625 12.8125-4.890625 17.703125 0 4.886719 4.886719 4.886719 12.8125 0 17.699219-2.339843 2.367187-5.527343 3.699218-8.851562 3.699218-3.328125 0-6.515625-1.332031-8.851563-3.699218zm-155.660156-17.699219c4.894531-4.878906 12.808594-4.878906 17.703125 0 4.886719 4.886719 4.886719 12.8125 0 17.699219-4.890625 4.886718-12.8125 4.886718-17.703125 0-4.886719-4.886719-4.886719-12.8125 0-17.699219zm-116.066406 151.46875c-4.886719 4.882813-12.804688 4.878906-17.6875-.007813-4.886719-4.882812-4.886719-12.800781 0-17.6875 4.882812-4.886718 12.800781-4.886718 17.6875-.003906 2.367187 2.335938 3.703125 5.523438 3.703125 8.847656 0 3.328126-1.335938 6.515626-3.703125 8.851563zm-4.386719 77.828125c-4.886719 4.882812-12.804687 4.882812-17.6875-.003906-4.882813-4.886719-4.882813-12.804688 0-17.6875 4.882813-4.886719 12.800781-4.890625 17.6875-.007813 4.882813 4.890625 4.882813 12.808594 0 17.699219zm4.386719 77.832031c-4.886719 4.886719-12.8125 4.886719-17.699219 0s-4.886719-12.8125 0-17.699219c4.894531-4.839843 12.78125-4.816406 17.648437.050782 4.867188 4.867187 4.890626 12.75.050782 17.648437zm133.769531 116.066407c4.234375 4.226562 4.894531 10.851562 1.574219 15.828124-3.316406 4.972657-9.6875 6.910157-15.214844 4.625-5.523438-2.285156-8.667969-8.15625-7.5-14.019531 1.164062-5.867187 6.308594-10.089843 12.289062-10.09375 3.320313-.007812 6.507813 1.308594 8.851563 3.660157zm155.660156 17.703124c-4.890625 4.878907-12.808593 4.878907-17.699219 0-4.886718-4.890624-4.886718-12.8125 0-17.703124 4.886719-4.886719 12.8125-4.886719 17.699219 0 4.886719 4.890624 4.886719 12.8125 0 17.703124zm116.066407-151.46875c4.890624-4.890624 12.8125-4.890624 17.703124 0 4.886719 4.886719 4.886719 12.8125 0 17.699219-4.890624 4.886719-12.8125 4.886719-17.703124 0-2.367188-2.335937-3.699219-5.523437-3.699219-8.851562s1.332031-6.515625 3.699219-8.851563zm-211.597657-293.816406c4.886719-4.886718 12.8125-4.886718 17.699219 0 4.886719 4.890625 4.886719 12.8125 0 17.699219s-12.8125 4.886719-17.699219 0c-2.355469-2.339844-3.679687-5.527344-3.679687-8.847656 0-3.324219 1.324218-6.507813 3.679687-8.851563zm17.699219 449.667969c-4.886719 4.882813-12.804688 4.878906-17.6875-.003906-4.882812-4.886719-4.882812-12.804688 0-17.691407 4.882812-4.882812 12.800781-4.886718 17.6875-.003906 4.882812 4.890625 4.882812 12.808594 0 17.699219zm-8.847656-93.117187c-72.628906 0-131.71875-59.089844-131.71875-131.714844 0-72.628906 59.089844-131.71875 131.71875-131.71875 72.625 0 131.714844 59.089844 131.714844 131.71875 0 72.625-59.089844 131.714844-131.714844 131.714844zm0 0" fill="url(#b)"/></svg>