<svg height="490pt" viewBox="-48 0 490 490.94963" width="490pt" xmlns="http://www.w3.org/2000/svg" xmlns:xlink="http://www.w3.org/1999/xlink"><linearGradient id="a" gradientUnits="userSpaceOnUse" x1="197.474815" x2="197.474815" y1="-2.526284" y2="474.547716"><stop offset="0" stop-color="#00efd1"/><stop offset="1" stop-color="#00acea"/></linearGradient><g fill="url(#a)"><path d="m133.796875 345.472656h127.355469c4.023437-.207031 7.210937-3.472656 7.324218-7.5v-105.488281c-.152343-3.929687-3.390624-7.03125-7.324218-7.011719h-15.675782v-30.5625c0-26.984375-21.273437-48.9375-48-48.9375-26.730468 0-48 21.953125-48 48.9375v30.5625h-15.679687c-3.933594-.019531-7.171875 3.082032-7.320313 7.011719v105.488281c.109376 4.027344 3.296876 7.292969 7.320313 7.5zm29.679687-150.5625c0-19.265625 14.988282-34.9375 34-34.9375 19.007813 0 34 15.671875 34 34.9375v30.5625h-68zm-23 44.5625h114v92h-114zm0 0"/><path d="m390.5 93.972656-189.910156-93.257812c-1.949219-.953125-4.230469-.953125-6.179688 0l-189.945312 93c-2.414063 1.167968-3.960938 3.597656-3.988282 6.277344v177.921874c0 44.25 29.824219 100.542969 66.40625 125.484376l126.617188 86.335937c2.386719 1.621094 5.523438 1.621094 7.910156 0l126.589844-86.335937c17.839844-12.160157 34.59375-31.839844 47.0625-55.40625 12.476562-23.585938 19.414062-48.472657 19.414062-70.078126v-177.65625c-.023437-2.679687-1.566406-5.113281-3.976562-6.285156zm-10.023438 183.941406c0 40.167969-27.082031 91.273438-60.300781 113.917969l-122.671875 83.640625-122.65625-83.640625c-15.96875-10.886719-31.128906-28.8125-42.578125-50.484375-11.433593-21.640625-17.792969-44.167968-17.792969-63.433594v-173.554687l183-89.566406 183 89.828125zm0 0"/><path d="m47.828125 245.472656c0 82.519532 67.128906 149.648438 149.648437 149.648438 82.515626 0 149.644532-67.128906 149.644532-149.648438 0-82.515625-67.128906-149.648437-149.644532-149.648437-82.519531 0-149.648437 67.132812-149.648437 149.648437zm149.648437-135.648437c74.796876 0 135.644532 60.851562 135.644532 135.648437s-60.847656 135.648438-135.644532 135.648438c-74.800781 0-135.648437-60.847656-135.648437-135.648438 0-74.800781 60.847656-135.648437 135.648437-135.648437zm0 0"/></g></svg>