<?xml version="1.0"?>
<svg xmlns="http://www.w3.org/2000/svg" xmlns:xlink="http://www.w3.org/1999/xlink" xmlns:svgjs="http://svgjs.com/svgjs" version="1.1" width="512" height="512" x="0" y="0" viewBox="0 0 484.34873 484" style="enable-background:new 0 0 512 512" xml:space="preserve"><g><script/><linearGradient xmlns="http://www.w3.org/2000/svg" id="lg1"><stop offset="0" stop-color="#00efd1"/><stop offset="1" stop-color="#00acea"/></linearGradient><linearGradient xmlns="http://www.w3.org/2000/svg" xmlns:xlink="http://www.w3.org/1999/xlink" id="linear0" gradientUnits="userSpaceOnUse" x1="84.689808" x2="84.689808" xlink:href="#lg1" y1="-92.629525" y2="357.905475"/><linearGradient xmlns="http://www.w3.org/2000/svg" xmlns:xlink="http://www.w3.org/1999/xlink" id="linear1" gradientUnits="userSpaceOnUse" x1="398.062808" x2="398.062808" xlink:href="#lg1" y1="-92.629525" y2="357.905475"/><linearGradient xmlns="http://www.w3.org/2000/svg" xmlns:xlink="http://www.w3.org/1999/xlink" id="linear2" gradientUnits="userSpaceOnUse" x1="242.189808" x2="242.189808" xlink:href="#lg1" y1="-92.629525" y2="357.905475"/><linearGradient xmlns="http://www.w3.org/2000/svg" xmlns:xlink="http://www.w3.org/1999/xlink" id="linear3" gradientUnits="userSpaceOnUse" x1="397.689808" x2="397.689808" xlink:href="#lg1" y1="-92.629525" y2="357.905475"/><path xmlns="http://www.w3.org/2000/svg" d="m84.691406 129.605469c23.449219-.023438 42.460938-19.023438 42.5-42.476563v-36.332031c.039063-7.226563-2.824218-14.164063-7.941406-19.265625s-12.066406-7.9375-19.292969-7.871094h-29.945312c-15.164063 0-27.820313 11.972656-27.820313 27.136719v36.332031c.035156 23.453125 19.046875 42.453125 42.5 42.476563zm30.5-78.808594v4.015625c-7 2.445312-13.703125 2.472656-19.550781-.292969-8.429687-3.992187-13.726563-12.859375-16.75-18.859375h21.070313c4.042968-.066406 7.941406 1.503906 10.808593 4.351563 2.871094 2.851562 4.464844 6.742187 4.421875 10.785156zm-49.3125-14.96875c1.335938 3.46875 2.9375 6.824219 4.800782 10.039063-4.554688 5.238281-9.488282 7.953124-16.488282 8.125v-3.195313c.078125-7.054687 4.863282-13.179687 11.6875-14.96875zm-11.6875 30.15625c8.964844-.136719 17.511719-3.832031 23.757813-10.273437 3.539062 3.925781 7.800781 7.128906 12.550781 9.441406 4.664062 2.246094 9.777344 3.402344 14.953125 3.386718 3.285156.003907 6.558594-.417968 9.738281-1.253906v19.84375c0 16.847656-13.65625 30.5-30.5 30.5-16.847656 0-30.5-13.652344-30.5-30.5zm0 0" fill="url(#linear0)" data-original="url(#linear0)" style=""/><path xmlns="http://www.w3.org/2000/svg" d="m355.929688 120.09375c.035156 2.003906 1.0625 3.855469 2.738281 4.949219l36.152343 23.652343c1.984376 1.296876 4.542969 1.308594 6.539063.027344l36.820313-23.652344c1.734374-1.117187 2.777343-3.046874 2.757812-5.109374l-.683594-66.246094c0-.566406-.011718-1.132813-.042968-1.691406-.496094-9.578126-5.292969-18.414063-13.054688-24.046876-8.011719-5.917968-18.265625-7.898437-27.90625-5.390624l-19.621094 5.074218h-6.5c-9.875.03125-17.878906 8.015625-17.9375 17.890625v18.230469zm72.425781-56.492188.253906 24.570313-3.097656 2.367187c-.941407.714844-2.089844 1.109376-3.273438 1.121094h-7.261719c-1.523437-.011718-2.976562-.65625-4-1.78125-.007812-.011718-.019531-.03125-.027343-.042968-3.304688-3.597657-7.964844-5.640626-12.847657-5.632813-4.886718.007813-9.539062 2.070313-12.832031 5.675781-1.027343 1.125-2.476562 1.769532-4 1.78125h-7.261719c-1.183593-.011718-2.332031-.402344-3.277343-1.121094l-3.125-2.378906-.167969-13.8125c2.148438-8.957031 7.339844-9.5 24.859375-6.835937 11.328125 1.726562 25.625 3.890625 36.058594-3.910157zm-30.203125 72.921876-30.207032-19.769532-.171874-14.289062c1.984374.773437 4.097656 1.179687 6.230468 1.195312h7.261719c4.890625-.015625 9.550781-2.074218 12.851563-5.679687 1.027343-1.125 2.476562-1.765625 3.996093-1.769531 1.523438 0 2.976563.636718 4.003907 1.753906.007812.011718.019531.039062.03125.050781 3.300781 3.585937 7.949218 5.632813 12.828124 5.644531h7.261719c2.234375-.015625 4.449219-.457031 6.515625-1.300781l.148438 14.421875zm-25.023438-96.863282h7.265625c.507813.007813 1.015625-.042968 1.511719-.160156l20.367188-5.28125c6.140624-1.605469 12.679687-.34375 17.785156 3.425781 2.96875 2.160157 5.285156 5.09375 6.703125 8.480469-5.359375 12.9375-16.101563 12.046875-32.71875 9.515625-8.46875-1.289063-18.851563-2.859375-26.851563.667969v-10.757813c.054688-3.25 2.6875-5.863281 5.9375-5.890625zm0 0" fill="url(#linear1)" data-original="url(#linear1)" style=""/><path xmlns="http://www.w3.org/2000/svg" d="m440.828125 145.660156h-23.355469c-1.933594.078125-3.714844 1.058594-4.824218 2.640625l-14.816407 20.15625-14.171875-20.117187c-1.109375-1.625-2.925781-2.621094-4.894531-2.679688h-23.34375c-16.398437 0-31.429687 9.136719-38.972656 23.699219-8.3125-6.9375-18.800781-10.726563-29.628907-10.699219h-14.628906v-1.890625c4-3.296875 8.578125-7.199219 13.261719-11.878906 12.121094-12.105469 21-24.859375 26.46875-37.902344 7.640625-18.238281 7.972656-37.84375.96875-55.203125-5.300781-13.140625-15.128906-20.851562-25.863281-20.71875-11.300782-24.195312-38.699219-36.367187-64.226563-28.539062-21.46875 6.199218-39.1875 20.605468-48.609375 39.511718-5.546875 11.3125-8.148437 23.839844-7.566406 36.425782 1.316406 31.882812 18.566406 61.539062 45.566406 76.636718v3.558594h-14.632812c-9.285156.042969-18.34375 2.886719-25.988282 8.15625-4.859374-19.550781-22.457031-33.246094-42.601562-33.15625h-85.410156c-12.359375-.003906-24.136719 5.242188-32.40625 14.429688-8.125 9.171875-12.09375 21.300781-10.960938 33.503906v60.429688c-.066406 1.515624.511719 2.992187 1.585938 4.0625 1.078125 1.070312 2.554687 1.640624 4.070312 1.574218h145.34375v17.421875c0 3.3125 2.71875 5.578125 6.03125 5.578125h169.933594c3.316406 0 6.035156-2.265625 6.035156-5.578125v-15.421875h145.339844c1.542969.007813 3.027344-.617187 4.097656-1.730468 1.070313-1.117188 1.632813-2.621094 1.5625-4.164063v-49.679687c1-12.21875-2.730468-24.636719-10.964844-33.753907-8.238281-9.25-20.007812-14.582031-32.398437-14.671875zm-20.328125 12h1.03125l1.585938 24.691406-15.949219-6.542968zm-45.808594 0h.976563l12.800781 18.238282-15.460938 6.261718zm-150.5 7.3125v-11.132812c5.765625 2.003906 11.824219 3.039062 17.925782 3.054687h.441406c6.007812-.085937 11.960937-1.144531 17.632812-3.136719v11.988282c0 9.941406-8.058594 18-18 18s-18-8.058594-18-18zm60-82.644531v19.773437c0 23.425782-18.761718 42.621094-41.847656 42.789063-11.203125.144531-21.984375-4.277344-29.863281-12.242187-7.957031-7.917969-12.390625-18.710938-12.289063-29.941407v-4.277343c11-2.097657 45.207032-11.0625 66.621094-46.617188 2.058594.699219 4.007812 1.675781 5.800781 2.898438 7.554688 5.128906 11.964844 13.753906 11.699219 22.878906zm-99.261718-34.933594c7.929687-15.910156 22.945312-28.058593 41.199218-33.335937 10.863282-3.136719 21.609375-2.25 31.078125 2.570312 9.09375 4.734375 16.214844 12.539063 20.09375 22.03125l.257813.777344c.984375 2.949219 4.054687 4.660156 7.078125 3.941406 1.8125-.429687 11.160156-1.832031 17.109375 12.902344 5.8125 14.402344 5.484375 30.765625-.925782 46.066406-1.671874 3.945313-3.632812 7.765625-5.867187 11.421875.828125-3.832031 1.242187-7.746093 1.238281-11.667969v-19.683593l.085938-4.660157c.3125-13.210937-6.136719-25.671874-17.109375-33.042968-4.40625-2.984375-9.433594-4.925782-14.699219-5.675782-2.46875-.34375-4.890625.875-6.082031 3.0625-21.867188 40.023438-60.300781 44.644532-63.449219 44.957032-3.828125.167968-6.820312 3.359375-6.746094 7.1875v8.460937c-.058594 4.371094.414063 8.734375 1.398438 12.992188-6.609375-11.523438-10.371094-24.457031-10.96875-37.726563-.503906-10.5625 1.664062-21.078125 6.308594-30.578125zm-102.75 119.371094h8.226562l7.1875 39.691406-11.203125 10.136719-10.472656-10.074219zm8.015624-12.105469h-7.871093l-2.234375-9h12.339844zm-78.003906 81v-54.359375c0-.199219-.183594-.398437-.203125-.601562-.941406-8.949219 1.957031-17.875 7.976563-24.554688 6.023437-6.683593 14.597656-10.496093 23.59375-10.484375h24.179687l3.425781 14.042969c-.007812.054687-.03125.089844-.039062.148437l-7.515625 47.699219c-.382813 1.992188.269531 4.042969 1.734375 5.449219l16.753906 16.125c2.273438 2.1875 5.847656 2.242188 8.1875.125l17.832032-16.128906c1.539062-1.390625 2.25-3.476563 1.878906-5.519532l-8.664063-47.808593 3.449219-14.132813h24.1875c17.449219-.042968 31.675781 13.984375 31.875 31.433594-6.261719 8.078125-9.65625 18.003906-9.652344 28.222656v30.34375zm309 23h-158v-53.34375c0-18.933594 15.433594-34.65625 34.367188-34.65625h14.929687c2.542969 14.332032 15 24.773438 29.558594 24.773438 14.554687 0 27.011719-10.441406 29.554687-24.773438h15.222657c18.929687 0 34.367187 15.722656 34.367187 34.65625zm4.097656-79.378906c4.425782-12.882812 16.511719-21.554688 30.132813-21.621094h7.238281l-2.289062 33.414063c-.144532 2.097656.789062 4.128906 2.476562 5.382812 1.019532.753907 2.246094 1.167969 3.511719 1.1875.78125.007813 1.554687-.136719 2.28125-.425781l22.550781-9.253906v49.695312h-58v-32.34375c.003906-9.269531-2.746094-18.332031-7.902344-26.035156zm147.101563 13.910156c-.019531.199219-.199219.398438-.199219.605469v43.863281h-69v-50.203125l24.285156 9.800781c1.914063.773438 4.089844.507813 5.761719-.699218 1.683594-1.296875 2.609375-3.34375 2.472657-5.460938l-2.15625-33.4375h7.273437c9.023437.085938 17.585937 3.980469 23.578125 10.71875 6.023438 6.785156 8.917969 15.789063 7.984375 24.8125zm0 0" fill="url(#linear2)" data-original="url(#linear2)" style=""/><path xmlns="http://www.w3.org/2000/svg" d="m405.191406 110.660156h-15c-3.316406 0-6 2.683594-6 6 0 3.3125 2.683594 6 6 6h15c3.3125 0 6-2.6875 6-6 0-3.316406-2.6875-6-6-6zm0 0" fill="url(#linear3)" data-original="url(#linear3)" style=""/></g></svg>
