<svg id="Layer_1" data-name="Layer 1" xmlns="http://www.w3.org/2000/svg" viewBox="0 0 67.93 68">
  <defs><style>.cls-1{fill:#f63436;}</style></defs>
  <title>cross</title><path class="cls-1" d="M55.5,71a34,34,0,1,0,34.15,34A34,34,0,0,0,55.5,71Zm7.12,34.52c2.9,2.86,5.77,5.77,8.67,8.64.39.38.39.57,0,1q-2.79,2.76-5.53,5.56c-.34.36-.51.4-.89,0-2.87-2.91-5.77-5.78-8.64-8.68-.38-.39-.57-.39-.95,0-2.87,2.9-5.77,5.77-8.64,8.68-.38.38-.59.46-1,0-1.87-1.93-3.77-3.82-5.69-5.7-.33-.33-.34-.51,0-.85,2.93-2.9,5.84-5.83,8.77-8.74.38-.37.4-.55,0-.94-2.9-2.87-5.77-5.78-8.66-8.66-.34-.33-.43-.52,0-.9,1.89-1.84,3.74-3.72,5.6-5.59l.43-.38.46.44c2.87,2.87,5.75,5.74,8.6,8.62.38.39.58.39,1,0,2.9-2.94,5.84-5.84,8.74-8.78.36-.37.54-.37.91,0q2.83,2.9,5.74,5.74c.35.34.31.51,0,.84-3,2.92-5.87,5.87-8.82,8.79C62.28,105,62.24,105.14,62.62,105.52Z" transform="translate(-21.72 -71)"/></svg>
