<svg id="Layer_1" data-name="Layer 1" xmlns="http://www.w3.org/2000/svg" viewBox="0 0 68 68.01"><defs><style>.cls-1{fill:#69c058;}</style></defs><title>tick</title><path class="cls-1" d="M142.25,71.33a34,34,0,0,0-34.25,34c-.22,18.31,15,33.73,33.3,34.05a34,34,0,1,0,.95-68Zm20.5,24.49Q149.49,109,136.26,122.28c-.15.15-.31.28-.45.42a1.5,1.5,0,0,1-.64-.51l-10.48-10.47c-1.16-1.17-2.31-2.35-3.5-3.49-.37-.35-.32-.53,0-.86,1.37-1.33,2.73-2.68,4.05-4.05.39-.4.6-.41,1,0,3,3,6,6,8.94,9,.44.45.66.45,1.1,0Q147,101.6,157.63,90.92c.45-.45.68-.53,1.16,0,1.27,1.35,2.6,2.66,3.93,4C163.1,95.2,163.16,95.4,162.75,95.82Z" transform="translate(-108 -71.33)"/></svg>